G04 #@! TF.GenerationSoftware,KiCad,Pcbnew,(5.0.0-rc2-204-g01c2d93a8)*
G04 #@! TF.CreationDate,2018-06-27T22:36:21-05:00*
G04 #@! TF.ProjectId,hall-current-probe,68616C6C2D63757272656E742D70726F,rev?*
G04 #@! TF.SameCoordinates,Original*
G04 #@! TF.FileFunction,Legend,Bot*
G04 #@! TF.FilePolarity,Positive*
%FSLAX46Y46*%
G04 Gerber Fmt 4.6, Leading zero omitted, Abs format (unit mm)*
G04 Created by KiCad (PCBNEW (5.0.0-rc2-204-g01c2d93a8)) date Wed Jun 27 22:36:21 2018*
%MOMM*%
%LPD*%
G01*
G04 APERTURE LIST*
%ADD10C,0.300000*%
%ADD11C,0.050000*%
%ADD12C,0.150000*%
G04 APERTURE END LIST*
D10*
X58952380Y-16928571D02*
X57047619Y-16928571D01*
X25952380Y-16928571D02*
X24047619Y-16928571D01*
X39952380Y-16928571D02*
X38047619Y-16928571D01*
X39000000Y-17880952D02*
X39000000Y-15976190D01*
X6952380Y-16928571D02*
X5047619Y-16928571D01*
X6000000Y-17880952D02*
X6000000Y-15976190D01*
D11*
G04 #@! TO.C,J4*
X21000000Y-31000000D02*
X21000000Y-18500000D01*
X10000000Y-31000000D02*
X21000000Y-31000000D01*
X10000000Y-18500000D02*
X10000000Y-31000000D01*
X21000000Y-18500000D02*
X10000000Y-18500000D01*
G04 #@! TO.C,J5*
X54000000Y-18500000D02*
X43000000Y-18500000D01*
X43000000Y-18500000D02*
X43000000Y-31000000D01*
X43000000Y-31000000D02*
X54000000Y-31000000D01*
X54000000Y-31000000D02*
X54000000Y-18500000D01*
G04 #@! TO.C,J4*
D12*
X15833333Y-16952380D02*
X15833333Y-17666666D01*
X15880952Y-17809523D01*
X15976190Y-17904761D01*
X16119047Y-17952380D01*
X16214285Y-17952380D01*
X14928571Y-17285714D02*
X14928571Y-17952380D01*
X15166666Y-16904761D02*
X15404761Y-17619047D01*
X14785714Y-17619047D01*
G04 #@! TO.C,J5*
X48833333Y-16952380D02*
X48833333Y-17666666D01*
X48880952Y-17809523D01*
X48976190Y-17904761D01*
X49119047Y-17952380D01*
X49214285Y-17952380D01*
X47880952Y-16952380D02*
X48357142Y-16952380D01*
X48404761Y-17428571D01*
X48357142Y-17380952D01*
X48261904Y-17333333D01*
X48023809Y-17333333D01*
X47928571Y-17380952D01*
X47880952Y-17428571D01*
X47833333Y-17523809D01*
X47833333Y-17761904D01*
X47880952Y-17857142D01*
X47928571Y-17904761D01*
X48023809Y-17952380D01*
X48261904Y-17952380D01*
X48357142Y-17904761D01*
X48404761Y-17857142D01*
G04 #@! TD*
M02*
