G04 #@! TF.GenerationSoftware,KiCad,Pcbnew,(5.0.0-rc2-204-g01c2d93a8)*
G04 #@! TF.CreationDate,2018-06-27T22:36:21-05:00*
G04 #@! TF.ProjectId,hall-current-probe,68616C6C2D63757272656E742D70726F,rev?*
G04 #@! TF.SameCoordinates,Original*
G04 #@! TF.FileFunction,Paste,Top*
G04 #@! TF.FilePolarity,Positive*
%FSLAX46Y46*%
G04 Gerber Fmt 4.6, Leading zero omitted, Abs format (unit mm)*
G04 Created by KiCad (PCBNEW (5.0.0-rc2-204-g01c2d93a8)) date Wed Jun 27 22:36:21 2018*
%MOMM*%
%LPD*%
G01*
G04 APERTURE LIST*
%ADD10O,1.400000X0.600000*%
%ADD11R,1.600000X1.400000*%
%ADD12R,1.900000X1.900000*%
%ADD13R,0.400000X1.350000*%
%ADD14R,1.150000X1.450000*%
%ADD15O,0.600000X1.550000*%
%ADD16R,0.950000X0.900000*%
%ADD17R,0.900000X0.950000*%
%ADD18R,1.450000X1.150000*%
%ADD19R,1.000000X0.850000*%
%ADD20O,1.550000X0.600000*%
G04 APERTURE END LIST*
D10*
G04 #@! TO.C,U4*
X4100000Y-9595000D03*
X4100000Y-10865000D03*
X4100000Y-12135000D03*
X4100000Y-13405000D03*
X9900000Y-13405000D03*
X9900000Y-12135000D03*
X9900000Y-10865000D03*
X9900000Y-9595000D03*
G04 #@! TD*
D11*
G04 #@! TO.C,J1*
X3800000Y-4150000D03*
X10200000Y-4150000D03*
D12*
X5800000Y-1500000D03*
X8200000Y-1500000D03*
D13*
X5700000Y-4375000D03*
X6350000Y-4375000D03*
X7000000Y-4375000D03*
X7650000Y-4375000D03*
X8300000Y-4375000D03*
G04 #@! TD*
D14*
G04 #@! TO.C,C8*
X7900000Y-7000000D03*
X6100000Y-7000000D03*
G04 #@! TD*
G04 #@! TO.C,C9*
X6100000Y-15750000D03*
X7900000Y-15750000D03*
G04 #@! TD*
D15*
G04 #@! TO.C,U1*
X13595000Y-15800000D03*
X14865000Y-15800000D03*
X16135000Y-15800000D03*
X17405000Y-15800000D03*
X17405000Y-21200000D03*
X16135000Y-21200000D03*
X14865000Y-21200000D03*
X13595000Y-21200000D03*
G04 #@! TD*
G04 #@! TO.C,U2*
X46595000Y-21200000D03*
X47865000Y-21200000D03*
X49135000Y-21200000D03*
X50405000Y-21200000D03*
X50405000Y-15800000D03*
X49135000Y-15800000D03*
X47865000Y-15800000D03*
X46595000Y-15800000D03*
G04 #@! TD*
D16*
G04 #@! TO.C,C1*
X26250000Y-12750000D03*
X26250000Y-14250000D03*
G04 #@! TD*
D17*
G04 #@! TO.C,C6*
X50500000Y-13500000D03*
X49000000Y-13500000D03*
G04 #@! TD*
G04 #@! TO.C,C10*
X30500000Y-15250000D03*
X32000000Y-15250000D03*
G04 #@! TD*
D16*
G04 #@! TO.C,C5*
X44500000Y-15000000D03*
X44500000Y-16500000D03*
G04 #@! TD*
G04 #@! TO.C,C4*
X36250000Y-12750000D03*
X36250000Y-14250000D03*
G04 #@! TD*
D17*
G04 #@! TO.C,C3*
X17500000Y-13500000D03*
X16000000Y-13500000D03*
G04 #@! TD*
D16*
G04 #@! TO.C,C2*
X11500000Y-16500000D03*
X11500000Y-15000000D03*
G04 #@! TD*
D18*
G04 #@! TO.C,C7*
X1750000Y-11100000D03*
X1750000Y-12900000D03*
G04 #@! TD*
D19*
G04 #@! TO.C,R8*
X36250000Y-11000000D03*
X36250000Y-9500000D03*
G04 #@! TD*
G04 #@! TO.C,R7*
X38250000Y-11000000D03*
X38250000Y-9500000D03*
G04 #@! TD*
G04 #@! TO.C,R6*
X40250000Y-11250000D03*
X40250000Y-12750000D03*
G04 #@! TD*
G04 #@! TO.C,R5*
X38250000Y-12750000D03*
X38250000Y-14250000D03*
G04 #@! TD*
G04 #@! TO.C,R4*
X26250000Y-11000000D03*
X26250000Y-9500000D03*
G04 #@! TD*
G04 #@! TO.C,R3*
X24250000Y-9500000D03*
X24250000Y-11000000D03*
G04 #@! TD*
G04 #@! TO.C,R2*
X22250000Y-11250000D03*
X22250000Y-12750000D03*
G04 #@! TD*
G04 #@! TO.C,R1*
X24250000Y-12750000D03*
X24250000Y-14250000D03*
G04 #@! TD*
D20*
G04 #@! TO.C,U3*
X28550000Y-9595000D03*
X28550000Y-10865000D03*
X28550000Y-12135000D03*
X28550000Y-13405000D03*
X33950000Y-13405000D03*
X33950000Y-12135000D03*
X33950000Y-10865000D03*
X33950000Y-9595000D03*
G04 #@! TD*
M02*
