G04 #@! TF.GenerationSoftware,KiCad,Pcbnew,(5.0.0-rc2-204-g01c2d93a8)*
G04 #@! TF.CreationDate,2018-06-27T22:36:21-05:00*
G04 #@! TF.ProjectId,hall-current-probe,68616C6C2D63757272656E742D70726F,rev?*
G04 #@! TF.SameCoordinates,Original*
G04 #@! TF.FileFunction,Legend,Top*
G04 #@! TF.FilePolarity,Positive*
%FSLAX46Y46*%
G04 Gerber Fmt 4.6, Leading zero omitted, Abs format (unit mm)*
G04 Created by KiCad (PCBNEW (5.0.0-rc2-204-g01c2d93a8)) date Wed Jun 27 22:36:21 2018*
%MOMM*%
%LPD*%
G01*
G04 APERTURE LIST*
%ADD10C,0.150000*%
G04 APERTURE END LIST*
D10*
G04 #@! TO.C,U4*
X8692000Y-8850000D02*
X5308000Y-8850000D01*
X5308000Y-8850000D02*
X5308000Y-14150000D01*
X5308000Y-14150000D02*
X8692000Y-14150000D01*
X8692000Y-14150000D02*
X8692000Y-8850000D01*
X3527000Y-8741000D02*
X3654000Y-8614000D01*
X3654000Y-8614000D02*
X3781000Y-8741000D01*
X3781000Y-8741000D02*
X3654000Y-8868000D01*
X3654000Y-8868000D02*
X3527000Y-8741000D01*
X5435000Y-9358000D02*
X5816000Y-8977000D01*
X5816000Y-8977000D02*
X6197000Y-9358000D01*
X6197000Y-9358000D02*
X5816000Y-9739000D01*
X5816000Y-9739000D02*
X5435000Y-9358000D01*
G04 #@! TO.C,J2*
X18500000Y-250000D02*
X18500000Y-8250000D01*
X26500000Y-250000D02*
X18500000Y-250000D01*
X26500000Y-8250000D02*
X26500000Y-250000D01*
X18500000Y-8250000D02*
X26500000Y-8250000D01*
G04 #@! TO.C,J3*
X37500000Y-8250000D02*
X45500000Y-8250000D01*
X45500000Y-8250000D02*
X45500000Y-250000D01*
X45500000Y-250000D02*
X37500000Y-250000D01*
X37500000Y-250000D02*
X37500000Y-8250000D01*
G04 #@! TO.C,J1*
X2800000Y0D02*
X2800000Y-5500000D01*
X2800000Y-5500000D02*
X11200000Y-5500000D01*
X11200000Y-5500000D02*
X11200000Y0D01*
G04 #@! TO.C,C8*
X7071000Y-6529000D02*
X6929000Y-6529000D01*
X6929000Y-6529000D02*
X7071000Y-6529000D01*
X7071000Y-7471000D02*
X6929000Y-7471000D01*
X6929000Y-7471000D02*
X7071000Y-7471000D01*
G04 #@! TO.C,C9*
X6929000Y-16221000D02*
X7071000Y-16221000D01*
X7071000Y-16221000D02*
X6929000Y-16221000D01*
X6929000Y-15279000D02*
X7071000Y-15279000D01*
X7071000Y-15279000D02*
X6929000Y-15279000D01*
G04 #@! TO.C,U1*
X13889000Y-19409000D02*
X13508000Y-19790000D01*
X13508000Y-19028000D02*
X13889000Y-19409000D01*
X13127000Y-19409000D02*
X13508000Y-19028000D01*
X13508000Y-19790000D02*
X13127000Y-19409000D01*
X12868000Y-21721000D02*
X12741000Y-21848000D01*
X12741000Y-21594000D02*
X12868000Y-21721000D01*
X12614000Y-21721000D02*
X12741000Y-21594000D01*
X12741000Y-21848000D02*
X12614000Y-21721000D01*
X18000000Y-17083000D02*
X13000000Y-17083000D01*
X18000000Y-19917000D02*
X18000000Y-17083000D01*
X13000000Y-19917000D02*
X18000000Y-19917000D01*
X13000000Y-17083000D02*
X13000000Y-19917000D01*
G04 #@! TO.C,U2*
X46000000Y-17083000D02*
X46000000Y-19917000D01*
X46000000Y-19917000D02*
X51000000Y-19917000D01*
X51000000Y-19917000D02*
X51000000Y-17083000D01*
X51000000Y-17083000D02*
X46000000Y-17083000D01*
X45741000Y-21848000D02*
X45614000Y-21721000D01*
X45614000Y-21721000D02*
X45741000Y-21594000D01*
X45741000Y-21594000D02*
X45868000Y-21721000D01*
X45868000Y-21721000D02*
X45741000Y-21848000D01*
X46508000Y-19790000D02*
X46127000Y-19409000D01*
X46127000Y-19409000D02*
X46508000Y-19028000D01*
X46508000Y-19028000D02*
X46889000Y-19409000D01*
X46889000Y-19409000D02*
X46508000Y-19790000D01*
G04 #@! TO.C,C1*
X26029000Y-13454000D02*
X26029000Y-13546000D01*
X26029000Y-13546000D02*
X26029000Y-13454000D01*
X26471000Y-13454000D02*
X26471000Y-13546000D01*
X26471000Y-13546000D02*
X26471000Y-13454000D01*
G04 #@! TO.C,C6*
X49796000Y-13279000D02*
X49704000Y-13279000D01*
X49704000Y-13279000D02*
X49796000Y-13279000D01*
X49796000Y-13721000D02*
X49704000Y-13721000D01*
X49704000Y-13721000D02*
X49796000Y-13721000D01*
G04 #@! TO.C,C10*
X31204000Y-15471000D02*
X31296000Y-15471000D01*
X31296000Y-15471000D02*
X31204000Y-15471000D01*
X31204000Y-15029000D02*
X31296000Y-15029000D01*
X31296000Y-15029000D02*
X31204000Y-15029000D01*
G04 #@! TO.C,C5*
X44279000Y-15704000D02*
X44279000Y-15796000D01*
X44279000Y-15796000D02*
X44279000Y-15704000D01*
X44721000Y-15704000D02*
X44721000Y-15796000D01*
X44721000Y-15796000D02*
X44721000Y-15704000D01*
G04 #@! TO.C,C4*
X36029000Y-13454000D02*
X36029000Y-13546000D01*
X36029000Y-13546000D02*
X36029000Y-13454000D01*
X36471000Y-13454000D02*
X36471000Y-13546000D01*
X36471000Y-13546000D02*
X36471000Y-13454000D01*
G04 #@! TO.C,C3*
X16796000Y-13279000D02*
X16704000Y-13279000D01*
X16704000Y-13279000D02*
X16796000Y-13279000D01*
X16796000Y-13721000D02*
X16704000Y-13721000D01*
X16704000Y-13721000D02*
X16796000Y-13721000D01*
G04 #@! TO.C,C2*
X11721000Y-15796000D02*
X11721000Y-15704000D01*
X11721000Y-15704000D02*
X11721000Y-15796000D01*
X11279000Y-15796000D02*
X11279000Y-15704000D01*
X11279000Y-15704000D02*
X11279000Y-15796000D01*
G04 #@! TO.C,C7*
X1279000Y-11929000D02*
X1279000Y-12071000D01*
X1279000Y-12071000D02*
X1279000Y-11929000D01*
X2221000Y-11929000D02*
X2221000Y-12071000D01*
X2221000Y-12071000D02*
X2221000Y-11929000D01*
G04 #@! TO.C,R8*
X36496000Y-10321000D02*
X36496000Y-10179000D01*
X36496000Y-10179000D02*
X36496000Y-10321000D01*
X36004000Y-10321000D02*
X36004000Y-10179000D01*
X36004000Y-10179000D02*
X36004000Y-10321000D01*
G04 #@! TO.C,R7*
X38496000Y-10321000D02*
X38496000Y-10179000D01*
X38496000Y-10179000D02*
X38496000Y-10321000D01*
X38004000Y-10321000D02*
X38004000Y-10179000D01*
X38004000Y-10179000D02*
X38004000Y-10321000D01*
G04 #@! TO.C,R6*
X40004000Y-11929000D02*
X40004000Y-12071000D01*
X40004000Y-12071000D02*
X40004000Y-11929000D01*
X40496000Y-11929000D02*
X40496000Y-12071000D01*
X40496000Y-12071000D02*
X40496000Y-11929000D01*
G04 #@! TO.C,R5*
X38004000Y-13429000D02*
X38004000Y-13571000D01*
X38004000Y-13571000D02*
X38004000Y-13429000D01*
X38496000Y-13429000D02*
X38496000Y-13571000D01*
X38496000Y-13571000D02*
X38496000Y-13429000D01*
G04 #@! TO.C,R4*
X26496000Y-10321000D02*
X26496000Y-10179000D01*
X26496000Y-10179000D02*
X26496000Y-10321000D01*
X26004000Y-10321000D02*
X26004000Y-10179000D01*
X26004000Y-10179000D02*
X26004000Y-10321000D01*
G04 #@! TO.C,R3*
X24004000Y-10179000D02*
X24004000Y-10321000D01*
X24004000Y-10321000D02*
X24004000Y-10179000D01*
X24496000Y-10179000D02*
X24496000Y-10321000D01*
X24496000Y-10321000D02*
X24496000Y-10179000D01*
G04 #@! TO.C,R2*
X22004000Y-11929000D02*
X22004000Y-12071000D01*
X22004000Y-12071000D02*
X22004000Y-11929000D01*
X22496000Y-11929000D02*
X22496000Y-12071000D01*
X22496000Y-12071000D02*
X22496000Y-11929000D01*
G04 #@! TO.C,R1*
X24004000Y-13429000D02*
X24004000Y-13571000D01*
X24004000Y-13571000D02*
X24004000Y-13429000D01*
X24496000Y-13429000D02*
X24496000Y-13571000D01*
X24496000Y-13571000D02*
X24496000Y-13429000D01*
G04 #@! TO.C,U3*
X32667000Y-9000000D02*
X29833000Y-9000000D01*
X29833000Y-9000000D02*
X29833000Y-14000000D01*
X29833000Y-14000000D02*
X32667000Y-14000000D01*
X32667000Y-14000000D02*
X32667000Y-9000000D01*
X27902000Y-8741000D02*
X28029000Y-8614000D01*
X28029000Y-8614000D02*
X28156000Y-8741000D01*
X28156000Y-8741000D02*
X28029000Y-8868000D01*
X28029000Y-8868000D02*
X27902000Y-8741000D01*
X29960000Y-9508000D02*
X30341000Y-9127000D01*
X30341000Y-9127000D02*
X30722000Y-9508000D01*
X30722000Y-9508000D02*
X30341000Y-9889000D01*
X30341000Y-9889000D02*
X29960000Y-9508000D01*
G04 #@! TO.C,U4*
X3140476Y-7311904D02*
X3140476Y-7959523D01*
X3178571Y-8035714D01*
X3216666Y-8073809D01*
X3292857Y-8111904D01*
X3445238Y-8111904D01*
X3521428Y-8073809D01*
X3559523Y-8035714D01*
X3597619Y-7959523D01*
X3597619Y-7311904D01*
X4321428Y-7578571D02*
X4321428Y-8111904D01*
X4130952Y-7273809D02*
X3940476Y-7845238D01*
X4435714Y-7845238D01*
G04 #@! TO.C,J2*
X26811904Y-2016666D02*
X27383333Y-2016666D01*
X27497619Y-2054761D01*
X27573809Y-2130952D01*
X27611904Y-2245238D01*
X27611904Y-2321428D01*
X26888095Y-1673809D02*
X26850000Y-1635714D01*
X26811904Y-1559523D01*
X26811904Y-1369047D01*
X26850000Y-1292857D01*
X26888095Y-1254761D01*
X26964285Y-1216666D01*
X27040476Y-1216666D01*
X27154761Y-1254761D01*
X27611904Y-1711904D01*
X27611904Y-1216666D01*
G04 #@! TO.C,J3*
X45811904Y-2016666D02*
X46383333Y-2016666D01*
X46497619Y-2054761D01*
X46573809Y-2130952D01*
X46611904Y-2245238D01*
X46611904Y-2321428D01*
X45811904Y-1711904D02*
X45811904Y-1216666D01*
X46116666Y-1483333D01*
X46116666Y-1369047D01*
X46154761Y-1292857D01*
X46192857Y-1254761D01*
X46269047Y-1216666D01*
X46459523Y-1216666D01*
X46535714Y-1254761D01*
X46573809Y-1292857D01*
X46611904Y-1369047D01*
X46611904Y-1597619D01*
X46573809Y-1673809D01*
X46535714Y-1711904D01*
G04 #@! TO.C,J1*
X11402380Y-2983333D02*
X12116666Y-2983333D01*
X12259523Y-3030952D01*
X12354761Y-3126190D01*
X12402380Y-3269047D01*
X12402380Y-3364285D01*
X12402380Y-1983333D02*
X12402380Y-2554761D01*
X12402380Y-2269047D02*
X11402380Y-2269047D01*
X11545238Y-2364285D01*
X11640476Y-2459523D01*
X11688095Y-2554761D01*
G04 #@! TO.C,C8*
X9616666Y-7285714D02*
X9578571Y-7323809D01*
X9464285Y-7361904D01*
X9388095Y-7361904D01*
X9273809Y-7323809D01*
X9197619Y-7247619D01*
X9159523Y-7171428D01*
X9121428Y-7019047D01*
X9121428Y-6904761D01*
X9159523Y-6752380D01*
X9197619Y-6676190D01*
X9273809Y-6600000D01*
X9388095Y-6561904D01*
X9464285Y-6561904D01*
X9578571Y-6600000D01*
X9616666Y-6638095D01*
X10073809Y-6904761D02*
X9997619Y-6866666D01*
X9959523Y-6828571D01*
X9921428Y-6752380D01*
X9921428Y-6714285D01*
X9959523Y-6638095D01*
X9997619Y-6600000D01*
X10073809Y-6561904D01*
X10226190Y-6561904D01*
X10302380Y-6600000D01*
X10340476Y-6638095D01*
X10378571Y-6714285D01*
X10378571Y-6752380D01*
X10340476Y-6828571D01*
X10302380Y-6866666D01*
X10226190Y-6904761D01*
X10073809Y-6904761D01*
X9997619Y-6942857D01*
X9959523Y-6980952D01*
X9921428Y-7057142D01*
X9921428Y-7209523D01*
X9959523Y-7285714D01*
X9997619Y-7323809D01*
X10073809Y-7361904D01*
X10226190Y-7361904D01*
X10302380Y-7323809D01*
X10340476Y-7285714D01*
X10378571Y-7209523D01*
X10378571Y-7057142D01*
X10340476Y-6980952D01*
X10302380Y-6942857D01*
X10226190Y-6904761D01*
G04 #@! TO.C,C9*
X6866666Y-17535714D02*
X6828571Y-17573809D01*
X6714285Y-17611904D01*
X6638095Y-17611904D01*
X6523809Y-17573809D01*
X6447619Y-17497619D01*
X6409523Y-17421428D01*
X6371428Y-17269047D01*
X6371428Y-17154761D01*
X6409523Y-17002380D01*
X6447619Y-16926190D01*
X6523809Y-16850000D01*
X6638095Y-16811904D01*
X6714285Y-16811904D01*
X6828571Y-16850000D01*
X6866666Y-16888095D01*
X7247619Y-17611904D02*
X7400000Y-17611904D01*
X7476190Y-17573809D01*
X7514285Y-17535714D01*
X7590476Y-17421428D01*
X7628571Y-17269047D01*
X7628571Y-16964285D01*
X7590476Y-16888095D01*
X7552380Y-16850000D01*
X7476190Y-16811904D01*
X7323809Y-16811904D01*
X7247619Y-16850000D01*
X7209523Y-16888095D01*
X7171428Y-16964285D01*
X7171428Y-17154761D01*
X7209523Y-17230952D01*
X7247619Y-17269047D01*
X7323809Y-17307142D01*
X7476190Y-17307142D01*
X7552380Y-17269047D01*
X7590476Y-17230952D01*
X7628571Y-17154761D01*
G04 #@! TO.C,U1*
X18561904Y-18109523D02*
X19209523Y-18109523D01*
X19285714Y-18071428D01*
X19323809Y-18033333D01*
X19361904Y-17957142D01*
X19361904Y-17804761D01*
X19323809Y-17728571D01*
X19285714Y-17690476D01*
X19209523Y-17652380D01*
X18561904Y-17652380D01*
X19361904Y-16852380D02*
X19361904Y-17309523D01*
X19361904Y-17080952D02*
X18561904Y-17080952D01*
X18676190Y-17157142D01*
X18752380Y-17233333D01*
X18790476Y-17309523D01*
G04 #@! TO.C,U2*
X51311904Y-18109523D02*
X51959523Y-18109523D01*
X52035714Y-18071428D01*
X52073809Y-18033333D01*
X52111904Y-17957142D01*
X52111904Y-17804761D01*
X52073809Y-17728571D01*
X52035714Y-17690476D01*
X51959523Y-17652380D01*
X51311904Y-17652380D01*
X51388095Y-17309523D02*
X51350000Y-17271428D01*
X51311904Y-17195238D01*
X51311904Y-17004761D01*
X51350000Y-16928571D01*
X51388095Y-16890476D01*
X51464285Y-16852380D01*
X51540476Y-16852380D01*
X51654761Y-16890476D01*
X52111904Y-17347619D01*
X52111904Y-16852380D01*
G04 #@! TO.C,C1*
X26535714Y-16383333D02*
X26573809Y-16421428D01*
X26611904Y-16535714D01*
X26611904Y-16611904D01*
X26573809Y-16726190D01*
X26497619Y-16802380D01*
X26421428Y-16840476D01*
X26269047Y-16878571D01*
X26154761Y-16878571D01*
X26002380Y-16840476D01*
X25926190Y-16802380D01*
X25850000Y-16726190D01*
X25811904Y-16611904D01*
X25811904Y-16535714D01*
X25850000Y-16421428D01*
X25888095Y-16383333D01*
X26611904Y-15621428D02*
X26611904Y-16078571D01*
X26611904Y-15850000D02*
X25811904Y-15850000D01*
X25926190Y-15926190D01*
X26002380Y-16002380D01*
X26040476Y-16078571D01*
G04 #@! TO.C,C6*
X49616666Y-12535714D02*
X49578571Y-12573809D01*
X49464285Y-12611904D01*
X49388095Y-12611904D01*
X49273809Y-12573809D01*
X49197619Y-12497619D01*
X49159523Y-12421428D01*
X49121428Y-12269047D01*
X49121428Y-12154761D01*
X49159523Y-12002380D01*
X49197619Y-11926190D01*
X49273809Y-11850000D01*
X49388095Y-11811904D01*
X49464285Y-11811904D01*
X49578571Y-11850000D01*
X49616666Y-11888095D01*
X50302380Y-11811904D02*
X50150000Y-11811904D01*
X50073809Y-11850000D01*
X50035714Y-11888095D01*
X49959523Y-12002380D01*
X49921428Y-12154761D01*
X49921428Y-12459523D01*
X49959523Y-12535714D01*
X49997619Y-12573809D01*
X50073809Y-12611904D01*
X50226190Y-12611904D01*
X50302380Y-12573809D01*
X50340476Y-12535714D01*
X50378571Y-12459523D01*
X50378571Y-12269047D01*
X50340476Y-12192857D01*
X50302380Y-12154761D01*
X50226190Y-12116666D01*
X50073809Y-12116666D01*
X49997619Y-12154761D01*
X49959523Y-12192857D01*
X49921428Y-12269047D01*
G04 #@! TO.C,C10*
X30735714Y-17035714D02*
X30697619Y-17073809D01*
X30583333Y-17111904D01*
X30507142Y-17111904D01*
X30392857Y-17073809D01*
X30316666Y-16997619D01*
X30278571Y-16921428D01*
X30240476Y-16769047D01*
X30240476Y-16654761D01*
X30278571Y-16502380D01*
X30316666Y-16426190D01*
X30392857Y-16350000D01*
X30507142Y-16311904D01*
X30583333Y-16311904D01*
X30697619Y-16350000D01*
X30735714Y-16388095D01*
X31497619Y-17111904D02*
X31040476Y-17111904D01*
X31269047Y-17111904D02*
X31269047Y-16311904D01*
X31192857Y-16426190D01*
X31116666Y-16502380D01*
X31040476Y-16540476D01*
X31992857Y-16311904D02*
X32069047Y-16311904D01*
X32145238Y-16350000D01*
X32183333Y-16388095D01*
X32221428Y-16464285D01*
X32259523Y-16616666D01*
X32259523Y-16807142D01*
X32221428Y-16959523D01*
X32183333Y-17035714D01*
X32145238Y-17073809D01*
X32069047Y-17111904D01*
X31992857Y-17111904D01*
X31916666Y-17073809D01*
X31878571Y-17035714D01*
X31840476Y-16959523D01*
X31802380Y-16807142D01*
X31802380Y-16616666D01*
X31840476Y-16464285D01*
X31878571Y-16388095D01*
X31916666Y-16350000D01*
X31992857Y-16311904D01*
G04 #@! TO.C,C5*
X43535714Y-15883333D02*
X43573809Y-15921428D01*
X43611904Y-16035714D01*
X43611904Y-16111904D01*
X43573809Y-16226190D01*
X43497619Y-16302380D01*
X43421428Y-16340476D01*
X43269047Y-16378571D01*
X43154761Y-16378571D01*
X43002380Y-16340476D01*
X42926190Y-16302380D01*
X42850000Y-16226190D01*
X42811904Y-16111904D01*
X42811904Y-16035714D01*
X42850000Y-15921428D01*
X42888095Y-15883333D01*
X42811904Y-15159523D02*
X42811904Y-15540476D01*
X43192857Y-15578571D01*
X43154761Y-15540476D01*
X43116666Y-15464285D01*
X43116666Y-15273809D01*
X43154761Y-15197619D01*
X43192857Y-15159523D01*
X43269047Y-15121428D01*
X43459523Y-15121428D01*
X43535714Y-15159523D01*
X43573809Y-15197619D01*
X43611904Y-15273809D01*
X43611904Y-15464285D01*
X43573809Y-15540476D01*
X43535714Y-15578571D01*
G04 #@! TO.C,C4*
X36535714Y-16633333D02*
X36573809Y-16671428D01*
X36611904Y-16785714D01*
X36611904Y-16861904D01*
X36573809Y-16976190D01*
X36497619Y-17052380D01*
X36421428Y-17090476D01*
X36269047Y-17128571D01*
X36154761Y-17128571D01*
X36002380Y-17090476D01*
X35926190Y-17052380D01*
X35850000Y-16976190D01*
X35811904Y-16861904D01*
X35811904Y-16785714D01*
X35850000Y-16671428D01*
X35888095Y-16633333D01*
X36078571Y-15947619D02*
X36611904Y-15947619D01*
X35773809Y-16138095D02*
X36345238Y-16328571D01*
X36345238Y-15833333D01*
G04 #@! TO.C,C3*
X16616666Y-12535714D02*
X16578571Y-12573809D01*
X16464285Y-12611904D01*
X16388095Y-12611904D01*
X16273809Y-12573809D01*
X16197619Y-12497619D01*
X16159523Y-12421428D01*
X16121428Y-12269047D01*
X16121428Y-12154761D01*
X16159523Y-12002380D01*
X16197619Y-11926190D01*
X16273809Y-11850000D01*
X16388095Y-11811904D01*
X16464285Y-11811904D01*
X16578571Y-11850000D01*
X16616666Y-11888095D01*
X16883333Y-11811904D02*
X17378571Y-11811904D01*
X17111904Y-12116666D01*
X17226190Y-12116666D01*
X17302380Y-12154761D01*
X17340476Y-12192857D01*
X17378571Y-12269047D01*
X17378571Y-12459523D01*
X17340476Y-12535714D01*
X17302380Y-12573809D01*
X17226190Y-12611904D01*
X16997619Y-12611904D01*
X16921428Y-12573809D01*
X16883333Y-12535714D01*
G04 #@! TO.C,C2*
X10535714Y-15883333D02*
X10573809Y-15921428D01*
X10611904Y-16035714D01*
X10611904Y-16111904D01*
X10573809Y-16226190D01*
X10497619Y-16302380D01*
X10421428Y-16340476D01*
X10269047Y-16378571D01*
X10154761Y-16378571D01*
X10002380Y-16340476D01*
X9926190Y-16302380D01*
X9850000Y-16226190D01*
X9811904Y-16111904D01*
X9811904Y-16035714D01*
X9850000Y-15921428D01*
X9888095Y-15883333D01*
X9888095Y-15578571D02*
X9850000Y-15540476D01*
X9811904Y-15464285D01*
X9811904Y-15273809D01*
X9850000Y-15197619D01*
X9888095Y-15159523D01*
X9964285Y-15121428D01*
X10040476Y-15121428D01*
X10154761Y-15159523D01*
X10611904Y-15616666D01*
X10611904Y-15121428D01*
G04 #@! TO.C,C7*
X2035714Y-9383333D02*
X2073809Y-9421428D01*
X2111904Y-9535714D01*
X2111904Y-9611904D01*
X2073809Y-9726190D01*
X1997619Y-9802380D01*
X1921428Y-9840476D01*
X1769047Y-9878571D01*
X1654761Y-9878571D01*
X1502380Y-9840476D01*
X1426190Y-9802380D01*
X1350000Y-9726190D01*
X1311904Y-9611904D01*
X1311904Y-9535714D01*
X1350000Y-9421428D01*
X1388095Y-9383333D01*
X1311904Y-9116666D02*
X1311904Y-8583333D01*
X2111904Y-8926190D01*
G04 #@! TO.C,R8*
X36611904Y-8133333D02*
X36230952Y-8400000D01*
X36611904Y-8590476D02*
X35811904Y-8590476D01*
X35811904Y-8285714D01*
X35850000Y-8209523D01*
X35888095Y-8171428D01*
X35964285Y-8133333D01*
X36078571Y-8133333D01*
X36154761Y-8171428D01*
X36192857Y-8209523D01*
X36230952Y-8285714D01*
X36230952Y-8590476D01*
X36154761Y-7676190D02*
X36116666Y-7752380D01*
X36078571Y-7790476D01*
X36002380Y-7828571D01*
X35964285Y-7828571D01*
X35888095Y-7790476D01*
X35850000Y-7752380D01*
X35811904Y-7676190D01*
X35811904Y-7523809D01*
X35850000Y-7447619D01*
X35888095Y-7409523D01*
X35964285Y-7371428D01*
X36002380Y-7371428D01*
X36078571Y-7409523D01*
X36116666Y-7447619D01*
X36154761Y-7523809D01*
X36154761Y-7676190D01*
X36192857Y-7752380D01*
X36230952Y-7790476D01*
X36307142Y-7828571D01*
X36459523Y-7828571D01*
X36535714Y-7790476D01*
X36573809Y-7752380D01*
X36611904Y-7676190D01*
X36611904Y-7523809D01*
X36573809Y-7447619D01*
X36535714Y-7409523D01*
X36459523Y-7371428D01*
X36307142Y-7371428D01*
X36230952Y-7409523D01*
X36192857Y-7447619D01*
X36154761Y-7523809D01*
G04 #@! TO.C,R7*
X40111904Y-9383333D02*
X39730952Y-9650000D01*
X40111904Y-9840476D02*
X39311904Y-9840476D01*
X39311904Y-9535714D01*
X39350000Y-9459523D01*
X39388095Y-9421428D01*
X39464285Y-9383333D01*
X39578571Y-9383333D01*
X39654761Y-9421428D01*
X39692857Y-9459523D01*
X39730952Y-9535714D01*
X39730952Y-9840476D01*
X39311904Y-9116666D02*
X39311904Y-8583333D01*
X40111904Y-8926190D01*
G04 #@! TO.C,R6*
X42111904Y-12133333D02*
X41730952Y-12400000D01*
X42111904Y-12590476D02*
X41311904Y-12590476D01*
X41311904Y-12285714D01*
X41350000Y-12209523D01*
X41388095Y-12171428D01*
X41464285Y-12133333D01*
X41578571Y-12133333D01*
X41654761Y-12171428D01*
X41692857Y-12209523D01*
X41730952Y-12285714D01*
X41730952Y-12590476D01*
X41311904Y-11447619D02*
X41311904Y-11600000D01*
X41350000Y-11676190D01*
X41388095Y-11714285D01*
X41502380Y-11790476D01*
X41654761Y-11828571D01*
X41959523Y-11828571D01*
X42035714Y-11790476D01*
X42073809Y-11752380D01*
X42111904Y-11676190D01*
X42111904Y-11523809D01*
X42073809Y-11447619D01*
X42035714Y-11409523D01*
X41959523Y-11371428D01*
X41769047Y-11371428D01*
X41692857Y-11409523D01*
X41654761Y-11447619D01*
X41616666Y-11523809D01*
X41616666Y-11676190D01*
X41654761Y-11752380D01*
X41692857Y-11790476D01*
X41769047Y-11828571D01*
G04 #@! TO.C,R5*
X38611904Y-16633333D02*
X38230952Y-16900000D01*
X38611904Y-17090476D02*
X37811904Y-17090476D01*
X37811904Y-16785714D01*
X37850000Y-16709523D01*
X37888095Y-16671428D01*
X37964285Y-16633333D01*
X38078571Y-16633333D01*
X38154761Y-16671428D01*
X38192857Y-16709523D01*
X38230952Y-16785714D01*
X38230952Y-17090476D01*
X37811904Y-15909523D02*
X37811904Y-16290476D01*
X38192857Y-16328571D01*
X38154761Y-16290476D01*
X38116666Y-16214285D01*
X38116666Y-16023809D01*
X38154761Y-15947619D01*
X38192857Y-15909523D01*
X38269047Y-15871428D01*
X38459523Y-15871428D01*
X38535714Y-15909523D01*
X38573809Y-15947619D01*
X38611904Y-16023809D01*
X38611904Y-16214285D01*
X38573809Y-16290476D01*
X38535714Y-16328571D01*
G04 #@! TO.C,R4*
X27611904Y-8133333D02*
X27230952Y-8400000D01*
X27611904Y-8590476D02*
X26811904Y-8590476D01*
X26811904Y-8285714D01*
X26850000Y-8209523D01*
X26888095Y-8171428D01*
X26964285Y-8133333D01*
X27078571Y-8133333D01*
X27154761Y-8171428D01*
X27192857Y-8209523D01*
X27230952Y-8285714D01*
X27230952Y-8590476D01*
X27078571Y-7447619D02*
X27611904Y-7447619D01*
X26773809Y-7638095D02*
X27345238Y-7828571D01*
X27345238Y-7333333D01*
G04 #@! TO.C,R3*
X23111904Y-9383333D02*
X22730952Y-9650000D01*
X23111904Y-9840476D02*
X22311904Y-9840476D01*
X22311904Y-9535714D01*
X22350000Y-9459523D01*
X22388095Y-9421428D01*
X22464285Y-9383333D01*
X22578571Y-9383333D01*
X22654761Y-9421428D01*
X22692857Y-9459523D01*
X22730952Y-9535714D01*
X22730952Y-9840476D01*
X22311904Y-9116666D02*
X22311904Y-8621428D01*
X22616666Y-8888095D01*
X22616666Y-8773809D01*
X22654761Y-8697619D01*
X22692857Y-8659523D01*
X22769047Y-8621428D01*
X22959523Y-8621428D01*
X23035714Y-8659523D01*
X23073809Y-8697619D01*
X23111904Y-8773809D01*
X23111904Y-9002380D01*
X23073809Y-9078571D01*
X23035714Y-9116666D01*
G04 #@! TO.C,R2*
X21111904Y-12133333D02*
X20730952Y-12400000D01*
X21111904Y-12590476D02*
X20311904Y-12590476D01*
X20311904Y-12285714D01*
X20350000Y-12209523D01*
X20388095Y-12171428D01*
X20464285Y-12133333D01*
X20578571Y-12133333D01*
X20654761Y-12171428D01*
X20692857Y-12209523D01*
X20730952Y-12285714D01*
X20730952Y-12590476D01*
X20388095Y-11828571D02*
X20350000Y-11790476D01*
X20311904Y-11714285D01*
X20311904Y-11523809D01*
X20350000Y-11447619D01*
X20388095Y-11409523D01*
X20464285Y-11371428D01*
X20540476Y-11371428D01*
X20654761Y-11409523D01*
X21111904Y-11866666D01*
X21111904Y-11371428D01*
G04 #@! TO.C,R1*
X24611904Y-16383333D02*
X24230952Y-16650000D01*
X24611904Y-16840476D02*
X23811904Y-16840476D01*
X23811904Y-16535714D01*
X23850000Y-16459523D01*
X23888095Y-16421428D01*
X23964285Y-16383333D01*
X24078571Y-16383333D01*
X24154761Y-16421428D01*
X24192857Y-16459523D01*
X24230952Y-16535714D01*
X24230952Y-16840476D01*
X24611904Y-15621428D02*
X24611904Y-16078571D01*
X24611904Y-15850000D02*
X23811904Y-15850000D01*
X23926190Y-15926190D01*
X24002380Y-16002380D01*
X24040476Y-16078571D01*
G04 #@! TO.C,U3*
X30640476Y-7561904D02*
X30640476Y-8209523D01*
X30678571Y-8285714D01*
X30716666Y-8323809D01*
X30792857Y-8361904D01*
X30945238Y-8361904D01*
X31021428Y-8323809D01*
X31059523Y-8285714D01*
X31097619Y-8209523D01*
X31097619Y-7561904D01*
X31402380Y-7561904D02*
X31897619Y-7561904D01*
X31630952Y-7866666D01*
X31745238Y-7866666D01*
X31821428Y-7904761D01*
X31859523Y-7942857D01*
X31897619Y-8019047D01*
X31897619Y-8209523D01*
X31859523Y-8285714D01*
X31821428Y-8323809D01*
X31745238Y-8361904D01*
X31516666Y-8361904D01*
X31440476Y-8323809D01*
X31402380Y-8285714D01*
G04 #@! TD*
M02*
