M48
;DRILL file {KiCad (5.0.0-rc2-204-g01c2d93a8)} date Wed Jun 27 22:36:23 2018
;FORMAT={-:-/ absolute / metric / decimal}
FMAT,2
METRIC,TZ
T1C0.400
T2C0.500
T3C0.700
T4C1.300
T5C1.500
T6C1.600
T7C5.100
%
G90
G05
M71
T1
X4.8Y-6.95
X4.8Y-15.75
X11.5Y-13.85
X13.25Y-25.75
X13.25Y-27.
X14.5Y-22.75
X14.5Y-24.25
X14.5Y-25.75
X14.5Y-27.25
X16.5Y-22.75
X16.5Y-24.25
X16.5Y-25.75
X16.5Y-27.25
X17.5Y-14.45
X17.75Y-25.75
X17.75Y-27.
X24.25Y-15.15
X26.25Y-15.15
X30.499Y-16.726
X33.Y-16.75
X36.25Y-15.25
X38.25Y-15.25
X44.5Y-13.95
X46.25Y-25.75
X46.25Y-27.
X47.5Y-22.75
X47.5Y-24.25
X47.5Y-25.75
X47.5Y-27.25
X49.5Y-22.75
X49.5Y-24.25
X49.5Y-25.75
X49.5Y-27.25
X50.405Y-14.495
X50.75Y-25.75
X50.75Y-27.
T3
X54.5Y-25.
X56.25Y-21.969
X56.25Y-28.031
X59.75Y-21.969
X59.75Y-28.031
X61.5Y-25.
X35.5Y-25.
X37.25Y-21.969
X37.25Y-28.031
X40.75Y-21.969
X40.75Y-28.031
X42.5Y-25.
X21.5Y-25.
X23.25Y-21.969
X23.25Y-28.031
X26.75Y-21.969
X26.75Y-28.031
X28.5Y-25.
X2.5Y-25.
X4.25Y-21.969
X4.25Y-28.031
X7.75Y-21.969
X7.75Y-28.031
X9.5Y-25.
T4
X13.Y-23.5
X13.Y-28.5
X18.Y-23.5
X18.Y-28.5
X46.Y-23.5
X46.Y-28.5
X51.Y-23.5
X51.Y-28.5
T5
X22.5Y-4.25
X41.5Y-4.25
T6
X19.95Y-1.7
X19.95Y-6.8
X25.05Y-1.7
X25.05Y-6.8
X38.95Y-1.7
X38.95Y-6.8
X44.05Y-1.7
X44.05Y-6.8
T7
X58.Y-25.
X39.Y-25.
X25.Y-25.
X6.Y-25.
T2
X3.7Y-1.85G85X3.7Y-1.15
G05
X10.3Y-1.85G85X10.3Y-1.15
G05
T0
M30
