G04 #@! TF.GenerationSoftware,KiCad,Pcbnew,(5.0.0-rc2-204-g01c2d93a8)*
G04 #@! TF.CreationDate,2018-06-27T22:36:21-05:00*
G04 #@! TF.ProjectId,hall-current-probe,68616C6C2D63757272656E742D70726F,rev?*
G04 #@! TF.SameCoordinates,Original*
G04 #@! TF.FileFunction,Copper,L1,Top,Signal*
G04 #@! TF.FilePolarity,Positive*
%FSLAX46Y46*%
G04 Gerber Fmt 4.6, Leading zero omitted, Abs format (unit mm)*
G04 Created by KiCad (PCBNEW (5.0.0-rc2-204-g01c2d93a8)) date Wed Jun 27 22:36:21 2018*
%MOMM*%
%LPD*%
G01*
G04 APERTURE LIST*
G04 #@! TA.AperFunction,ComponentPad*
%ADD10C,2.200000*%
G04 #@! TD*
G04 #@! TA.AperFunction,ComponentPad*
%ADD11C,1.000000*%
G04 #@! TD*
G04 #@! TA.AperFunction,ComponentPad*
%ADD12C,9.000000*%
G04 #@! TD*
G04 #@! TA.AperFunction,SMDPad,CuDef*
%ADD13O,1.400000X0.600000*%
G04 #@! TD*
G04 #@! TA.AperFunction,ComponentPad*
%ADD14C,2.400000*%
G04 #@! TD*
G04 #@! TA.AperFunction,ComponentPad*
%ADD15C,2.000000*%
G04 #@! TD*
G04 #@! TA.AperFunction,SMDPad,CuDef*
%ADD16R,1.600000X1.400000*%
G04 #@! TD*
G04 #@! TA.AperFunction,SMDPad,CuDef*
%ADD17R,1.900000X1.900000*%
G04 #@! TD*
G04 #@! TA.AperFunction,SMDPad,CuDef*
%ADD18R,0.400000X1.350000*%
G04 #@! TD*
G04 #@! TA.AperFunction,ComponentPad*
%ADD19O,0.900000X1.600000*%
G04 #@! TD*
G04 #@! TA.AperFunction,SMDPad,CuDef*
%ADD20R,1.150000X1.450000*%
G04 #@! TD*
G04 #@! TA.AperFunction,SMDPad,CuDef*
%ADD21O,0.600000X1.550000*%
G04 #@! TD*
G04 #@! TA.AperFunction,SMDPad,CuDef*
%ADD22R,0.950000X0.900000*%
G04 #@! TD*
G04 #@! TA.AperFunction,SMDPad,CuDef*
%ADD23R,0.900000X0.950000*%
G04 #@! TD*
G04 #@! TA.AperFunction,SMDPad,CuDef*
%ADD24R,1.450000X1.150000*%
G04 #@! TD*
G04 #@! TA.AperFunction,SMDPad,CuDef*
%ADD25R,1.000000X0.850000*%
G04 #@! TD*
G04 #@! TA.AperFunction,SMDPad,CuDef*
%ADD26O,1.550000X0.600000*%
G04 #@! TD*
G04 #@! TA.AperFunction,ViaPad*
%ADD27C,0.800000*%
G04 #@! TD*
G04 #@! TA.AperFunction,Conductor*
%ADD28C,0.250000*%
G04 #@! TD*
G04 #@! TA.AperFunction,Conductor*
%ADD29C,0.350000*%
G04 #@! TD*
G04 #@! TA.AperFunction,Conductor*
%ADD30C,0.600000*%
G04 #@! TD*
G04 #@! TA.AperFunction,Conductor*
%ADD31C,2.200000*%
G04 #@! TD*
G04 APERTURE END LIST*
D10*
G04 #@! TO.P,J4,2*
G04 #@! TO.N,/IA+*
X13000000Y-23500000D03*
X13000000Y-28500000D03*
G04 #@! TO.P,J4,1*
G04 #@! TO.N,/IA-*
X18000000Y-28500000D03*
X18000000Y-23500000D03*
G04 #@! TD*
G04 #@! TO.P,J5,1*
G04 #@! TO.N,/IB-*
X51000000Y-23500000D03*
X51000000Y-28500000D03*
G04 #@! TO.P,J5,2*
G04 #@! TO.N,/IB+*
X46000000Y-28500000D03*
X46000000Y-23500000D03*
G04 #@! TD*
D11*
G04 #@! TO.P,MP4,1*
G04 #@! TO.N,/IB-*
X59750000Y-21968911D03*
X56250000Y-21968911D03*
X54500000Y-25000000D03*
X56250000Y-28031089D03*
X59750000Y-28031089D03*
X61500000Y-25000000D03*
D12*
X58000000Y-25000000D03*
G04 #@! TD*
G04 #@! TO.P,MP1,1*
G04 #@! TO.N,/IA+*
X6000000Y-25000000D03*
D11*
X9500000Y-25000000D03*
X7750000Y-28031089D03*
X4250000Y-28031089D03*
X2500000Y-25000000D03*
X4250000Y-21968911D03*
X7750000Y-21968911D03*
G04 #@! TD*
G04 #@! TO.P,MP2,1*
G04 #@! TO.N,/IA-*
X26750000Y-21968911D03*
X23250000Y-21968911D03*
X21500000Y-25000000D03*
X23250000Y-28031089D03*
X26750000Y-28031089D03*
X28500000Y-25000000D03*
D12*
X25000000Y-25000000D03*
G04 #@! TD*
G04 #@! TO.P,MP3,1*
G04 #@! TO.N,/IB+*
X39000000Y-25000000D03*
D11*
X42500000Y-25000000D03*
X40750000Y-28031089D03*
X37250000Y-28031089D03*
X35500000Y-25000000D03*
X37250000Y-21968911D03*
X40750000Y-21968911D03*
G04 #@! TD*
D13*
G04 #@! TO.P,U4,1*
G04 #@! TO.N,Net-(U4-Pad1)*
X4100000Y-9595000D03*
G04 #@! TO.P,U4,2*
G04 #@! TO.N,Net-(C7-Pad1)*
X4100000Y-10865000D03*
G04 #@! TO.P,U4,3*
G04 #@! TO.N,GND*
X4100000Y-12135000D03*
G04 #@! TO.P,U4,4*
G04 #@! TO.N,Net-(C7-Pad2)*
X4100000Y-13405000D03*
G04 #@! TO.P,U4,5*
G04 #@! TO.N,-5*
X9900000Y-13405000D03*
G04 #@! TO.P,U4,6*
G04 #@! TO.N,Net-(U4-Pad6)*
X9900000Y-12135000D03*
G04 #@! TO.P,U4,7*
G04 #@! TO.N,Net-(U4-Pad7)*
X9900000Y-10865000D03*
G04 #@! TO.P,U4,8*
G04 #@! TO.N,+5*
X9900000Y-9595000D03*
G04 #@! TD*
D14*
G04 #@! TO.P,J2,2*
G04 #@! TO.N,GND*
X19950000Y-1700000D03*
X25050000Y-1700000D03*
X19950000Y-6800000D03*
X25050000Y-6800000D03*
D15*
G04 #@! TO.P,J2,1*
G04 #@! TO.N,/OUT_A*
X22500000Y-4250000D03*
G04 #@! TD*
G04 #@! TO.P,J3,1*
G04 #@! TO.N,/OUT_B*
X41500000Y-4250000D03*
D14*
G04 #@! TO.P,J3,2*
G04 #@! TO.N,GND*
X44050000Y-6800000D03*
X38950000Y-6800000D03*
X44050000Y-1700000D03*
X38950000Y-1700000D03*
G04 #@! TD*
D16*
G04 #@! TO.P,J1,SH*
G04 #@! TO.N,GND*
X3800000Y-4150000D03*
X10200000Y-4150000D03*
D17*
X5800000Y-1500000D03*
X8200000Y-1500000D03*
D18*
G04 #@! TO.P,J1,5*
X5700000Y-4375000D03*
G04 #@! TO.P,J1,4*
G04 #@! TO.N,Net-(J1-Pad4)*
X6350000Y-4375000D03*
G04 #@! TO.P,J1,3*
G04 #@! TO.N,Net-(J1-Pad3)*
X7000000Y-4375000D03*
G04 #@! TO.P,J1,2*
G04 #@! TO.N,Net-(J1-Pad2)*
X7650000Y-4375000D03*
G04 #@! TO.P,J1,1*
G04 #@! TO.N,+5*
X8300000Y-4375000D03*
D19*
G04 #@! TO.P,J1,SH*
G04 #@! TO.N,GND*
X3700000Y-1500000D03*
X10300000Y-1500000D03*
G04 #@! TD*
D20*
G04 #@! TO.P,C8,1*
G04 #@! TO.N,+5*
X7900000Y-7000000D03*
G04 #@! TO.P,C8,2*
G04 #@! TO.N,GND*
X6100000Y-7000000D03*
G04 #@! TD*
G04 #@! TO.P,C9,2*
G04 #@! TO.N,GND*
X6100000Y-15750000D03*
G04 #@! TO.P,C9,1*
G04 #@! TO.N,-5*
X7900000Y-15750000D03*
G04 #@! TD*
D21*
G04 #@! TO.P,U1,8*
G04 #@! TO.N,+5*
X13595000Y-15800000D03*
G04 #@! TO.P,U1,7*
G04 #@! TO.N,Net-(R2-Pad2)*
X14865000Y-15800000D03*
G04 #@! TO.P,U1,6*
G04 #@! TO.N,Net-(C3-Pad1)*
X16135000Y-15800000D03*
G04 #@! TO.P,U1,5*
G04 #@! TO.N,GND*
X17405000Y-15800000D03*
G04 #@! TO.P,U1,4*
G04 #@! TO.N,/IA-*
X17405000Y-21200000D03*
G04 #@! TO.P,U1,3*
X16135000Y-21200000D03*
G04 #@! TO.P,U1,2*
G04 #@! TO.N,/IA+*
X14865000Y-21200000D03*
G04 #@! TO.P,U1,1*
X13595000Y-21200000D03*
G04 #@! TD*
G04 #@! TO.P,U2,1*
G04 #@! TO.N,/IB+*
X46595000Y-21200000D03*
G04 #@! TO.P,U2,2*
X47865000Y-21200000D03*
G04 #@! TO.P,U2,3*
G04 #@! TO.N,/IB-*
X49135000Y-21200000D03*
G04 #@! TO.P,U2,4*
X50405000Y-21200000D03*
G04 #@! TO.P,U2,5*
G04 #@! TO.N,GND*
X50405000Y-15800000D03*
G04 #@! TO.P,U2,6*
G04 #@! TO.N,Net-(C6-Pad1)*
X49135000Y-15800000D03*
G04 #@! TO.P,U2,7*
G04 #@! TO.N,Net-(R6-Pad2)*
X47865000Y-15800000D03*
G04 #@! TO.P,U2,8*
G04 #@! TO.N,+5*
X46595000Y-15800000D03*
G04 #@! TD*
D22*
G04 #@! TO.P,C1,1*
G04 #@! TO.N,Net-(C1-Pad1)*
X26250000Y-12750000D03*
G04 #@! TO.P,C1,2*
G04 #@! TO.N,GND*
X26250000Y-14250000D03*
G04 #@! TD*
D23*
G04 #@! TO.P,C6,2*
G04 #@! TO.N,GND*
X50500000Y-13500000D03*
G04 #@! TO.P,C6,1*
G04 #@! TO.N,Net-(C6-Pad1)*
X49000000Y-13500000D03*
G04 #@! TD*
G04 #@! TO.P,C10,1*
G04 #@! TO.N,+5*
X30500000Y-15250000D03*
G04 #@! TO.P,C10,2*
G04 #@! TO.N,-5*
X32000000Y-15250000D03*
G04 #@! TD*
D22*
G04 #@! TO.P,C5,2*
G04 #@! TO.N,GND*
X44500000Y-15000000D03*
G04 #@! TO.P,C5,1*
G04 #@! TO.N,+5*
X44500000Y-16500000D03*
G04 #@! TD*
G04 #@! TO.P,C4,1*
G04 #@! TO.N,Net-(C4-Pad1)*
X36250000Y-12750000D03*
G04 #@! TO.P,C4,2*
G04 #@! TO.N,GND*
X36250000Y-14250000D03*
G04 #@! TD*
D23*
G04 #@! TO.P,C3,2*
G04 #@! TO.N,GND*
X17500000Y-13500000D03*
G04 #@! TO.P,C3,1*
G04 #@! TO.N,Net-(C3-Pad1)*
X16000000Y-13500000D03*
G04 #@! TD*
D22*
G04 #@! TO.P,C2,1*
G04 #@! TO.N,+5*
X11500000Y-16500000D03*
G04 #@! TO.P,C2,2*
G04 #@! TO.N,GND*
X11500000Y-15000000D03*
G04 #@! TD*
D24*
G04 #@! TO.P,C7,1*
G04 #@! TO.N,Net-(C7-Pad1)*
X1750000Y-11100000D03*
G04 #@! TO.P,C7,2*
G04 #@! TO.N,Net-(C7-Pad2)*
X1750000Y-12900000D03*
G04 #@! TD*
D25*
G04 #@! TO.P,R8,2*
G04 #@! TO.N,Net-(R7-Pad1)*
X36250000Y-11000000D03*
G04 #@! TO.P,R8,1*
G04 #@! TO.N,/OUT_B*
X36250000Y-9500000D03*
G04 #@! TD*
G04 #@! TO.P,R7,1*
G04 #@! TO.N,Net-(R7-Pad1)*
X38250000Y-11000000D03*
G04 #@! TO.P,R7,2*
G04 #@! TO.N,Net-(C6-Pad1)*
X38250000Y-9500000D03*
G04 #@! TD*
G04 #@! TO.P,R6,2*
G04 #@! TO.N,Net-(R6-Pad2)*
X40250000Y-11250000D03*
G04 #@! TO.P,R6,1*
G04 #@! TO.N,Net-(C4-Pad1)*
X40250000Y-12750000D03*
G04 #@! TD*
G04 #@! TO.P,R5,1*
G04 #@! TO.N,Net-(C4-Pad1)*
X38250000Y-12750000D03*
G04 #@! TO.P,R5,2*
G04 #@! TO.N,GND*
X38250000Y-14250000D03*
G04 #@! TD*
G04 #@! TO.P,R4,2*
G04 #@! TO.N,Net-(R3-Pad1)*
X26250000Y-11000000D03*
G04 #@! TO.P,R4,1*
G04 #@! TO.N,/OUT_A*
X26250000Y-9500000D03*
G04 #@! TD*
G04 #@! TO.P,R3,1*
G04 #@! TO.N,Net-(R3-Pad1)*
X24250000Y-9500000D03*
G04 #@! TO.P,R3,2*
G04 #@! TO.N,Net-(C3-Pad1)*
X24250000Y-11000000D03*
G04 #@! TD*
G04 #@! TO.P,R2,2*
G04 #@! TO.N,Net-(R2-Pad2)*
X22250000Y-11250000D03*
G04 #@! TO.P,R2,1*
G04 #@! TO.N,Net-(C1-Pad1)*
X22250000Y-12750000D03*
G04 #@! TD*
G04 #@! TO.P,R1,1*
G04 #@! TO.N,Net-(C1-Pad1)*
X24250000Y-12750000D03*
G04 #@! TO.P,R1,2*
G04 #@! TO.N,GND*
X24250000Y-14250000D03*
G04 #@! TD*
D26*
G04 #@! TO.P,U3,1*
G04 #@! TO.N,/OUT_A*
X28550000Y-9595000D03*
G04 #@! TO.P,U3,2*
G04 #@! TO.N,Net-(R3-Pad1)*
X28550000Y-10865000D03*
G04 #@! TO.P,U3,3*
G04 #@! TO.N,Net-(C1-Pad1)*
X28550000Y-12135000D03*
G04 #@! TO.P,U3,4*
G04 #@! TO.N,+5*
X28550000Y-13405000D03*
G04 #@! TO.P,U3,5*
G04 #@! TO.N,Net-(C4-Pad1)*
X33950000Y-13405000D03*
G04 #@! TO.P,U3,6*
G04 #@! TO.N,Net-(R7-Pad1)*
X33950000Y-12135000D03*
G04 #@! TO.P,U3,7*
G04 #@! TO.N,/OUT_B*
X33950000Y-10865000D03*
G04 #@! TO.P,U3,8*
G04 #@! TO.N,-5*
X33950000Y-9595000D03*
G04 #@! TD*
D27*
G04 #@! TO.N,GND*
X11500000Y-13850000D03*
X50405000Y-14495000D03*
X17500000Y-14450000D03*
X24250000Y-15150000D03*
X26250000Y-15150000D03*
X36250000Y-15250000D03*
X38250000Y-15250000D03*
X4800000Y-6950000D03*
X4800000Y-15750000D03*
X44499998Y-13950000D03*
G04 #@! TO.N,+5*
X30499092Y-16725523D03*
X33000000Y-16750000D03*
G04 #@! TO.N,/IB+*
X47500000Y-22750000D03*
X47500000Y-25750000D03*
X46250000Y-27000000D03*
X46250000Y-25750000D03*
X47500000Y-27250000D03*
X47500000Y-24250000D03*
G04 #@! TO.N,/IA-*
X16500000Y-27250000D03*
X16500000Y-25750000D03*
X16500000Y-24250000D03*
X16500000Y-22750000D03*
X17750000Y-25750000D03*
X17750000Y-27000000D03*
G04 #@! TO.N,/IA+*
X14500000Y-27250000D03*
X14500000Y-25750000D03*
X14500000Y-24250000D03*
X14500000Y-22750000D03*
X13250000Y-25750000D03*
X13250000Y-27000000D03*
G04 #@! TO.N,/IB-*
X50750000Y-27000000D03*
X49500000Y-22750000D03*
X49500000Y-27250000D03*
X49500000Y-25750000D03*
X49500000Y-24250000D03*
X50750000Y-25750000D03*
G04 #@! TD*
D28*
G04 #@! TO.N,Net-(C7-Pad1)*
X1750000Y-11100000D02*
X2800000Y-11100000D01*
X3035000Y-10865000D02*
X4100000Y-10865000D01*
X2800000Y-11100000D02*
X3035000Y-10865000D01*
G04 #@! TO.N,GND*
X50500000Y-13500000D02*
X50500000Y-14400000D01*
X50405000Y-14495000D02*
X50405000Y-15800000D01*
X50500000Y-14400000D02*
X50405000Y-14495000D01*
X11500000Y-15000000D02*
X11500000Y-13850000D01*
X17500000Y-13500000D02*
X17500000Y-14450000D01*
X17405000Y-14545000D02*
X17405000Y-15800000D01*
X17500000Y-14450000D02*
X17405000Y-14545000D01*
X24250000Y-14250000D02*
X24250000Y-15150000D01*
X26250000Y-14250000D02*
X26250000Y-15150000D01*
X36250000Y-14250000D02*
X36250000Y-15250000D01*
X38250000Y-14250000D02*
X38250000Y-15250000D01*
X44500000Y-15000000D02*
X44500000Y-13950000D01*
D29*
X6100000Y-15750000D02*
X6100000Y-12150000D01*
X6100000Y-12150000D02*
X6100000Y-7000000D01*
X6085000Y-12135000D02*
X6100000Y-12150000D01*
X4100000Y-12135000D02*
X6085000Y-12135000D01*
X6100000Y-7000000D02*
X6100000Y-6100000D01*
X5700000Y-5700000D02*
X5700000Y-4375000D01*
X6100000Y-6100000D02*
X5700000Y-5700000D01*
X5700000Y-4375000D02*
X5375000Y-4375000D01*
X5150000Y-4150000D02*
X3800000Y-4150000D01*
X5375000Y-4375000D02*
X5150000Y-4150000D01*
X3800000Y-4150000D02*
X3800000Y-3250000D01*
X3700000Y-3150000D02*
X3700000Y-1500000D01*
X3800000Y-3250000D02*
X3700000Y-3150000D01*
X3700000Y-1500000D02*
X5800000Y-1500000D01*
X5800000Y-1500000D02*
X8200000Y-1500000D01*
X8200000Y-1500000D02*
X10300000Y-1500000D01*
X10300000Y-1500000D02*
X10300000Y-2700000D01*
X10200000Y-2800000D02*
X10200000Y-4150000D01*
X10300000Y-2700000D02*
X10200000Y-2800000D01*
X6100000Y-7000000D02*
X4850000Y-7000000D01*
X4850000Y-7000000D02*
X4800000Y-6950000D01*
X6100000Y-15750000D02*
X4800000Y-15750000D01*
D28*
G04 #@! TO.N,Net-(C7-Pad2)*
X1750000Y-12900000D02*
X2600000Y-12900000D01*
X3105000Y-13405000D02*
X4100000Y-13405000D01*
X2600000Y-12900000D02*
X3105000Y-13405000D01*
D29*
G04 #@! TO.N,-5*
X32000000Y-15250000D02*
X32000000Y-10250000D01*
X32000000Y-10250000D02*
X32655000Y-9595000D01*
X32655000Y-9595000D02*
X33950000Y-9595000D01*
X9900000Y-13405000D02*
X8595000Y-13405000D01*
X7900000Y-14100000D02*
X7900000Y-15750000D01*
X8595000Y-13405000D02*
X7900000Y-14100000D01*
X8350010Y-17550010D02*
X7900000Y-17100000D01*
X31099990Y-17550010D02*
X8350010Y-17550010D01*
X7900000Y-17100000D02*
X7900000Y-15750000D01*
X32000000Y-15250000D02*
X32000000Y-16650000D01*
X32000000Y-16650000D02*
X31099990Y-17550010D01*
G04 #@! TO.N,+5*
X13700000Y-17000000D02*
X13595000Y-16895000D01*
X13245000Y-17000000D02*
X13595000Y-16650000D01*
X13200000Y-17000000D02*
X13245000Y-17000000D01*
X13595000Y-16650000D02*
X13595000Y-15800000D01*
X13595000Y-16895000D02*
X13595000Y-16650000D01*
X13700000Y-17000000D02*
X13200000Y-17000000D01*
X13900000Y-16955000D02*
X13595000Y-16650000D01*
X13900000Y-17000000D02*
X13900000Y-16955000D01*
X13900000Y-17000000D02*
X13700000Y-17000000D01*
X30500000Y-15250000D02*
X30500000Y-13750000D01*
X30155000Y-13405000D02*
X28550000Y-13405000D01*
X30500000Y-13750000D02*
X30155000Y-13405000D01*
X9900000Y-9595000D02*
X8495000Y-9595000D01*
X7900000Y-9000000D02*
X7900000Y-7000000D01*
X8495000Y-9595000D02*
X7900000Y-9000000D01*
X7900000Y-7000000D02*
X7900000Y-6000000D01*
X8300000Y-5600000D02*
X8300000Y-4375000D01*
X7900000Y-6000000D02*
X8300000Y-5600000D01*
X13200000Y-17000000D02*
X13000000Y-17000000D01*
X12500000Y-16500000D02*
X11500000Y-16500000D01*
X13000000Y-17000000D02*
X12500000Y-16500000D01*
X30500000Y-16724615D02*
X30499092Y-16725523D01*
X30500000Y-15250000D02*
X30500000Y-16724615D01*
X33000000Y-16750000D02*
X42250000Y-16750000D01*
X42500000Y-16500000D02*
X43500000Y-16500000D01*
X42250000Y-16750000D02*
X42500000Y-16500000D01*
X46595000Y-16455000D02*
X46595000Y-15800000D01*
X46250000Y-16800000D02*
X46595000Y-16455000D01*
X45800000Y-16800000D02*
X46250000Y-16800000D01*
X44500000Y-16500000D02*
X45500000Y-16500000D01*
X45500000Y-16500000D02*
X45800000Y-16800000D01*
X43500000Y-16500000D02*
X44500000Y-16500000D01*
X11095000Y-9595000D02*
X9900000Y-9595000D01*
X13595000Y-15800000D02*
X13595000Y-12095000D01*
X13595000Y-12095000D02*
X11095000Y-9595000D01*
X30224615Y-17000000D02*
X30499092Y-16725523D01*
X13900000Y-17000000D02*
X30224615Y-17000000D01*
D28*
G04 #@! TO.N,Net-(R3-Pad1)*
X24500000Y-9500000D02*
X25000000Y-9500000D01*
X25325001Y-9825001D02*
X25325001Y-10825001D01*
X25000000Y-9500000D02*
X25325001Y-9825001D01*
X25500000Y-11000000D02*
X26250000Y-11000000D01*
X25325001Y-10825001D02*
X25500000Y-11000000D01*
X26250000Y-11000000D02*
X27000000Y-11000000D01*
X27135000Y-10865000D02*
X28550000Y-10865000D01*
X27000000Y-11000000D02*
X27135000Y-10865000D01*
G04 #@! TO.N,Net-(C1-Pad1)*
X22250000Y-12750000D02*
X26250000Y-12750000D01*
X22250000Y-12750000D02*
X24250000Y-12750000D01*
X26250000Y-12750000D02*
X26500000Y-12750000D01*
X27115000Y-12135000D02*
X28550000Y-12135000D01*
X26500000Y-12750000D02*
X27115000Y-12135000D01*
G04 #@! TO.N,Net-(C4-Pad1)*
X40250000Y-12750000D02*
X38250000Y-12750000D01*
X38250000Y-12750000D02*
X36250000Y-12750000D01*
X33950000Y-13405000D02*
X34845000Y-13405000D01*
X35500000Y-12750000D02*
X36250000Y-12750000D01*
X34845000Y-13405000D02*
X35500000Y-12750000D01*
G04 #@! TO.N,Net-(R7-Pad1)*
X38250000Y-11000000D02*
X36250000Y-11000000D01*
X35250000Y-11650000D02*
X34765000Y-12135000D01*
X35250000Y-11350000D02*
X35250000Y-11650000D01*
X34765000Y-12135000D02*
X33950000Y-12135000D01*
X36250000Y-11000000D02*
X35600000Y-11000000D01*
X35600000Y-11000000D02*
X35250000Y-11350000D01*
G04 #@! TO.N,Net-(R2-Pad2)*
X17250000Y-11250000D02*
X22250000Y-11250000D01*
X16000000Y-11250000D02*
X17250000Y-11250000D01*
X14865000Y-15800000D02*
X14865000Y-12385000D01*
X14865000Y-12385000D02*
X16000000Y-11250000D01*
G04 #@! TO.N,Net-(C3-Pad1)*
X16000000Y-13500000D02*
X16000000Y-14250000D01*
X16135000Y-14385000D02*
X16135000Y-15800000D01*
X16000000Y-14250000D02*
X16135000Y-14385000D01*
X24250000Y-11400000D02*
X24250000Y-11000000D01*
X23650000Y-12000000D02*
X24250000Y-11400000D01*
X16000000Y-13500000D02*
X16000000Y-12750000D01*
X16750000Y-12000000D02*
X23650000Y-12000000D01*
X16000000Y-12750000D02*
X16750000Y-12000000D01*
G04 #@! TO.N,Net-(R6-Pad2)*
X47865000Y-12715000D02*
X47865000Y-15800000D01*
X47865000Y-12615000D02*
X47865000Y-12715000D01*
X40250000Y-11250000D02*
X46500000Y-11250000D01*
X46500000Y-11250000D02*
X47865000Y-12615000D01*
G04 #@! TO.N,Net-(C6-Pad1)*
X49135000Y-15800000D02*
X49135000Y-14535000D01*
X49000000Y-14400000D02*
X49000000Y-13500000D01*
X49135000Y-14535000D02*
X49000000Y-14400000D01*
X49000000Y-11750000D02*
X49000000Y-13500000D01*
X38250000Y-9500000D02*
X46750000Y-9500000D01*
X46750000Y-9500000D02*
X49000000Y-11750000D01*
G04 #@! TO.N,/OUT_A*
X28455000Y-9500000D02*
X28550000Y-9595000D01*
X26250000Y-9500000D02*
X28455000Y-9500000D01*
X26250000Y-9500000D02*
X26250000Y-8750000D01*
X26250000Y-8750000D02*
X27000000Y-8000000D01*
X27000000Y-8000000D02*
X27000000Y-5000000D01*
X26250000Y-4250000D02*
X27000000Y-5000000D01*
X22500000Y-4250000D02*
X26250000Y-4250000D01*
G04 #@! TO.N,/OUT_B*
X34785000Y-10865000D02*
X33950000Y-10865000D01*
X35250000Y-9850000D02*
X35250000Y-10400000D01*
X35250000Y-10400000D02*
X34785000Y-10865000D01*
X36250000Y-9500000D02*
X35600000Y-9500000D01*
X35600000Y-9500000D02*
X35250000Y-9850000D01*
X41500000Y-4250000D02*
X37250000Y-4250000D01*
X36250000Y-5250000D02*
X36250000Y-9500000D01*
X37250000Y-4250000D02*
X36250000Y-5250000D01*
D30*
G04 #@! TO.N,/IB+*
X46595000Y-21200000D02*
X46595000Y-24555000D01*
X46150000Y-25000000D02*
X39000000Y-25000000D01*
X46595000Y-24555000D02*
X46150000Y-25000000D01*
X47865000Y-21200000D02*
X47865000Y-24335000D01*
X47200000Y-25000000D02*
X46150000Y-25000000D01*
X47865000Y-24335000D02*
X47200000Y-25000000D01*
D28*
X46000000Y-27250000D02*
X46250000Y-27000000D01*
D31*
X46000000Y-28500000D02*
X46000000Y-27250000D01*
D30*
G04 #@! TO.N,/IA-*
X18250000Y-25000000D02*
X23000000Y-25000000D01*
X16750000Y-25000000D02*
X18250000Y-25000000D01*
X16135000Y-24385000D02*
X16500000Y-24250000D01*
X17405000Y-24155000D02*
X17750000Y-24250000D01*
X16135000Y-22750000D02*
X16135000Y-24385000D01*
X17405000Y-22750000D02*
X17405000Y-24155000D01*
X16500000Y-24250000D02*
X16750000Y-25000000D01*
X16500000Y-22750000D02*
X16135000Y-22750000D01*
X16135000Y-22385000D02*
X16500000Y-22750000D01*
X16135000Y-21200000D02*
X16135000Y-22385000D01*
X17750000Y-22750000D02*
X17405000Y-22750000D01*
X17750000Y-24250000D02*
X18250000Y-25000000D01*
X17405000Y-22405000D02*
X17750000Y-22750000D01*
X17405000Y-21200000D02*
X17405000Y-22405000D01*
D31*
X18000000Y-28500000D02*
X18000000Y-27250000D01*
D30*
G04 #@! TO.N,/IA+*
X13595000Y-24155000D02*
X13250000Y-24250000D01*
X12750000Y-25000000D02*
X4000000Y-25000000D01*
X14250000Y-25000000D02*
X12750000Y-25000000D01*
X14865000Y-24385000D02*
X14500000Y-24250000D01*
X13595000Y-22750000D02*
X13595000Y-24155000D01*
X14865000Y-22750000D02*
X14865000Y-24385000D01*
X14500000Y-24250000D02*
X14250000Y-25000000D01*
X14500000Y-22750000D02*
X14865000Y-22750000D01*
X14865000Y-22385000D02*
X14500000Y-22750000D01*
X14865000Y-21200000D02*
X14865000Y-22385000D01*
X13250000Y-22750000D02*
X13595000Y-22750000D01*
X13250000Y-24250000D02*
X12750000Y-25000000D01*
X13595000Y-22405000D02*
X13250000Y-22750000D01*
X13595000Y-21200000D02*
X13595000Y-22405000D01*
D31*
X13000000Y-28500000D02*
X13000000Y-27250000D01*
D30*
G04 #@! TO.N,/IB-*
X49135000Y-21200000D02*
X49135000Y-24285000D01*
X49850000Y-25000000D02*
X58000000Y-25000000D01*
X49135000Y-24285000D02*
X49850000Y-25000000D01*
X51300000Y-25000000D02*
X58000000Y-25000000D01*
X50405000Y-21200000D02*
X50405000Y-24105000D01*
X50405000Y-24105000D02*
X51300000Y-25000000D01*
D28*
X51000000Y-27250000D02*
X50750000Y-27000000D01*
D31*
X51000000Y-28500000D02*
X51000000Y-27250000D01*
G04 #@! TD*
D30*
G04 #@! TO.N,/IB+*
G36*
X47942000Y-27700000D02*
X39148741Y-27700000D01*
X36705299Y-24487327D01*
X39115823Y-22300000D01*
X47942000Y-22300000D01*
X47942000Y-27700000D01*
X47942000Y-27700000D01*
G37*
X47942000Y-27700000D02*
X39148741Y-27700000D01*
X36705299Y-24487327D01*
X39115823Y-22300000D01*
X47942000Y-22300000D01*
X47942000Y-27700000D01*
G04 #@! TO.N,/IB-*
G36*
X60274070Y-25512673D02*
X57863546Y-27700000D01*
X49050000Y-27700000D01*
X49050000Y-22300000D01*
X57830628Y-22300000D01*
X60274070Y-25512673D01*
X60274070Y-25512673D01*
G37*
X60274070Y-25512673D02*
X57863546Y-27700000D01*
X49050000Y-27700000D01*
X49050000Y-22300000D01*
X57830628Y-22300000D01*
X60274070Y-25512673D01*
G04 #@! TO.N,/IA-*
G36*
X27575736Y-25000000D02*
X24875736Y-27700000D01*
X16050000Y-27700000D01*
X16050000Y-22300000D01*
X24875736Y-22300000D01*
X27575736Y-25000000D01*
X27575736Y-25000000D01*
G37*
X27575736Y-25000000D02*
X24875736Y-27700000D01*
X16050000Y-27700000D01*
X16050000Y-22300000D01*
X24875736Y-22300000D01*
X27575736Y-25000000D01*
G04 #@! TO.N,/IA+*
G36*
X14942000Y-27700000D02*
X6124264Y-27700000D01*
X3432919Y-25008655D01*
X6367295Y-22300000D01*
X14942000Y-22300000D01*
X14942000Y-27700000D01*
X14942000Y-27700000D01*
G37*
X14942000Y-27700000D02*
X6124264Y-27700000D01*
X3432919Y-25008655D01*
X6367295Y-22300000D01*
X14942000Y-22300000D01*
X14942000Y-27700000D01*
G04 #@! TD*
M02*
