G04 #@! TF.GenerationSoftware,KiCad,Pcbnew,(5.0.0-rc2-204-g01c2d93a8)*
G04 #@! TF.CreationDate,2018-06-27T22:36:21-05:00*
G04 #@! TF.ProjectId,hall-current-probe,68616C6C2D63757272656E742D70726F,rev?*
G04 #@! TF.SameCoordinates,Original*
G04 #@! TF.FileFunction,Copper,L2,Bot,Signal*
G04 #@! TF.FilePolarity,Positive*
%FSLAX46Y46*%
G04 Gerber Fmt 4.6, Leading zero omitted, Abs format (unit mm)*
G04 Created by KiCad (PCBNEW (5.0.0-rc2-204-g01c2d93a8)) date Wed Jun 27 22:36:21 2018*
%MOMM*%
%LPD*%
G01*
G04 APERTURE LIST*
G04 #@! TA.AperFunction,ComponentPad*
%ADD10C,2.200000*%
G04 #@! TD*
G04 #@! TA.AperFunction,ComponentPad*
%ADD11C,1.000000*%
G04 #@! TD*
G04 #@! TA.AperFunction,ComponentPad*
%ADD12C,9.000000*%
G04 #@! TD*
G04 #@! TA.AperFunction,ComponentPad*
%ADD13C,2.400000*%
G04 #@! TD*
G04 #@! TA.AperFunction,ComponentPad*
%ADD14C,2.000000*%
G04 #@! TD*
G04 #@! TA.AperFunction,ComponentPad*
%ADD15O,0.900000X1.600000*%
G04 #@! TD*
G04 #@! TA.AperFunction,ViaPad*
%ADD16C,0.800000*%
G04 #@! TD*
G04 #@! TA.AperFunction,Conductor*
%ADD17C,0.350000*%
G04 #@! TD*
G04 #@! TA.AperFunction,Conductor*
%ADD18C,0.250000*%
G04 #@! TD*
G04 #@! TA.AperFunction,Conductor*
%ADD19C,0.600000*%
G04 #@! TD*
G04 APERTURE END LIST*
D10*
G04 #@! TO.P,J4,2*
G04 #@! TO.N,/IA+*
X13000000Y-23500000D03*
X13000000Y-28500000D03*
G04 #@! TO.P,J4,1*
G04 #@! TO.N,/IA-*
X18000000Y-28500000D03*
X18000000Y-23500000D03*
G04 #@! TD*
G04 #@! TO.P,J5,1*
G04 #@! TO.N,/IB-*
X51000000Y-23500000D03*
X51000000Y-28500000D03*
G04 #@! TO.P,J5,2*
G04 #@! TO.N,/IB+*
X46000000Y-28500000D03*
X46000000Y-23500000D03*
G04 #@! TD*
D11*
G04 #@! TO.P,MP4,1*
G04 #@! TO.N,/IB-*
X59750000Y-21968911D03*
X56250000Y-21968911D03*
X54500000Y-25000000D03*
X56250000Y-28031089D03*
X59750000Y-28031089D03*
X61500000Y-25000000D03*
D12*
X58000000Y-25000000D03*
G04 #@! TD*
G04 #@! TO.P,MP1,1*
G04 #@! TO.N,/IA+*
X6000000Y-25000000D03*
D11*
X9500000Y-25000000D03*
X7750000Y-28031089D03*
X4250000Y-28031089D03*
X2500000Y-25000000D03*
X4250000Y-21968911D03*
X7750000Y-21968911D03*
G04 #@! TD*
G04 #@! TO.P,MP2,1*
G04 #@! TO.N,/IA-*
X26750000Y-21968911D03*
X23250000Y-21968911D03*
X21500000Y-25000000D03*
X23250000Y-28031089D03*
X26750000Y-28031089D03*
X28500000Y-25000000D03*
D12*
X25000000Y-25000000D03*
G04 #@! TD*
G04 #@! TO.P,MP3,1*
G04 #@! TO.N,/IB+*
X39000000Y-25000000D03*
D11*
X42500000Y-25000000D03*
X40750000Y-28031089D03*
X37250000Y-28031089D03*
X35500000Y-25000000D03*
X37250000Y-21968911D03*
X40750000Y-21968911D03*
G04 #@! TD*
D13*
G04 #@! TO.P,J2,2*
G04 #@! TO.N,GND*
X19950000Y-1700000D03*
X25050000Y-1700000D03*
X19950000Y-6800000D03*
X25050000Y-6800000D03*
D14*
G04 #@! TO.P,J2,1*
G04 #@! TO.N,/OUT_A*
X22500000Y-4250000D03*
G04 #@! TD*
G04 #@! TO.P,J3,1*
G04 #@! TO.N,/OUT_B*
X41500000Y-4250000D03*
D13*
G04 #@! TO.P,J3,2*
G04 #@! TO.N,GND*
X44050000Y-6800000D03*
X38950000Y-6800000D03*
X44050000Y-1700000D03*
X38950000Y-1700000D03*
G04 #@! TD*
D15*
G04 #@! TO.P,J1,SH*
G04 #@! TO.N,GND*
X3700000Y-1500000D03*
X10300000Y-1500000D03*
G04 #@! TD*
D16*
G04 #@! TO.N,GND*
X11500000Y-13850000D03*
X50405000Y-14495000D03*
X17500000Y-14450000D03*
X24250000Y-15150000D03*
X26250000Y-15150000D03*
X36250000Y-15250000D03*
X38250000Y-15250000D03*
X4800000Y-6950000D03*
X4800000Y-15750000D03*
X44499998Y-13950000D03*
G04 #@! TO.N,+5*
X30499092Y-16725523D03*
X33000000Y-16750000D03*
G04 #@! TO.N,/IB+*
X47500000Y-22750000D03*
X47500000Y-25750000D03*
X46250000Y-27000000D03*
X46250000Y-25750000D03*
X47500000Y-27250000D03*
X47500000Y-24250000D03*
G04 #@! TO.N,/IA-*
X16500000Y-27250000D03*
X16500000Y-25750000D03*
X16500000Y-24250000D03*
X16500000Y-22750000D03*
X17750000Y-25750000D03*
X17750000Y-27000000D03*
G04 #@! TO.N,/IA+*
X14500000Y-27250000D03*
X14500000Y-25750000D03*
X14500000Y-24250000D03*
X14500000Y-22750000D03*
X13250000Y-25750000D03*
X13250000Y-27000000D03*
G04 #@! TO.N,/IB-*
X50750000Y-27000000D03*
X49500000Y-22750000D03*
X49500000Y-27250000D03*
X49500000Y-25750000D03*
X49500000Y-24250000D03*
X50750000Y-25750000D03*
G04 #@! TD*
D17*
G04 #@! TO.N,+5*
X33000000Y-16750000D02*
X30523569Y-16750000D01*
X30523569Y-16750000D02*
X30499092Y-16725523D01*
G04 #@! TD*
D18*
G04 #@! TO.N,GND*
G36*
X2939441Y-699667D02*
X2825000Y-1025000D01*
X2825000Y-1375000D01*
X3575000Y-1375000D01*
X3575000Y-1355000D01*
X3825000Y-1355000D01*
X3825000Y-1375000D01*
X4575000Y-1375000D01*
X4575000Y-1025000D01*
X4460559Y-699667D01*
X4281533Y-500000D01*
X9718467Y-500000D01*
X9539441Y-699667D01*
X9425000Y-1025000D01*
X9425000Y-1375000D01*
X10175000Y-1375000D01*
X10175000Y-1355000D01*
X10425000Y-1355000D01*
X10425000Y-1375000D01*
X11175000Y-1375000D01*
X11175000Y-1025000D01*
X11060559Y-699667D01*
X10881533Y-500000D01*
X18956550Y-500000D01*
X18945527Y-518751D01*
X19950000Y-1523223D01*
X20954473Y-518751D01*
X20943450Y-500000D01*
X24056550Y-500000D01*
X24045527Y-518751D01*
X25050000Y-1523223D01*
X26054473Y-518751D01*
X26043450Y-500000D01*
X37956550Y-500000D01*
X37945527Y-518751D01*
X38950000Y-1523223D01*
X39954473Y-518751D01*
X39943450Y-500000D01*
X43056550Y-500000D01*
X43045527Y-518751D01*
X44050000Y-1523223D01*
X45054473Y-518751D01*
X45043450Y-500000D01*
X60970952Y-500000D01*
X61574346Y-570348D01*
X62117879Y-767641D01*
X62601452Y-1084686D01*
X62999115Y-1504468D01*
X63289545Y-2004479D01*
X63459139Y-2564435D01*
X63500001Y-3022284D01*
X63500000Y-17625000D01*
X500000Y-17625000D01*
X500000Y-16561420D01*
X29674092Y-16561420D01*
X29674092Y-16889626D01*
X29799691Y-17192848D01*
X30031767Y-17424924D01*
X30334989Y-17550523D01*
X30663195Y-17550523D01*
X30966417Y-17424924D01*
X31041341Y-17350000D01*
X32433274Y-17350000D01*
X32532675Y-17449401D01*
X32835897Y-17575000D01*
X33164103Y-17575000D01*
X33467325Y-17449401D01*
X33699401Y-17217325D01*
X33825000Y-16914103D01*
X33825000Y-16585897D01*
X33699401Y-16282675D01*
X33467325Y-16050599D01*
X33164103Y-15925000D01*
X32835897Y-15925000D01*
X32532675Y-16050599D01*
X32433274Y-16150000D01*
X31090295Y-16150000D01*
X30966417Y-16026122D01*
X30663195Y-15900523D01*
X30334989Y-15900523D01*
X30031767Y-16026122D01*
X29799691Y-16258198D01*
X29674092Y-16561420D01*
X500000Y-16561420D01*
X500000Y-6684002D01*
X12004870Y-6684002D01*
X12010079Y-7347297D01*
X12229861Y-7973142D01*
X12640515Y-8494055D01*
X13197761Y-8853864D01*
X13841513Y-9013773D01*
X14502354Y-8956538D01*
X15109026Y-8688331D01*
X15596113Y-8238072D01*
X15734687Y-7981249D01*
X18945527Y-7981249D01*
X19080039Y-8210061D01*
X19685868Y-8435646D01*
X20331908Y-8412219D01*
X20819961Y-8210061D01*
X20954473Y-7981249D01*
X24045527Y-7981249D01*
X24180039Y-8210061D01*
X24785868Y-8435646D01*
X25431908Y-8412219D01*
X25919961Y-8210061D01*
X26054473Y-7981249D01*
X37945527Y-7981249D01*
X38080039Y-8210061D01*
X38685868Y-8435646D01*
X39331908Y-8412219D01*
X39819961Y-8210061D01*
X39954473Y-7981249D01*
X43045527Y-7981249D01*
X43180039Y-8210061D01*
X43785868Y-8435646D01*
X44431908Y-8412219D01*
X44919961Y-8210061D01*
X45054473Y-7981249D01*
X44050000Y-6976777D01*
X43045527Y-7981249D01*
X39954473Y-7981249D01*
X38950000Y-6976777D01*
X37945527Y-7981249D01*
X26054473Y-7981249D01*
X25050000Y-6976777D01*
X24045527Y-7981249D01*
X20954473Y-7981249D01*
X19950000Y-6976777D01*
X18945527Y-7981249D01*
X15734687Y-7981249D01*
X15911092Y-7654313D01*
X16020000Y-7000000D01*
X16019751Y-6968271D01*
X15940780Y-6535868D01*
X18314354Y-6535868D01*
X18337781Y-7181908D01*
X18539939Y-7669961D01*
X18768751Y-7804473D01*
X19773223Y-6800000D01*
X20126777Y-6800000D01*
X21131249Y-7804473D01*
X21360061Y-7669961D01*
X21585646Y-7064132D01*
X21566490Y-6535868D01*
X23414354Y-6535868D01*
X23437781Y-7181908D01*
X23639939Y-7669961D01*
X23868751Y-7804473D01*
X24873223Y-6800000D01*
X25226777Y-6800000D01*
X26231249Y-7804473D01*
X26460061Y-7669961D01*
X26685646Y-7064132D01*
X26666490Y-6535868D01*
X37314354Y-6535868D01*
X37337781Y-7181908D01*
X37539939Y-7669961D01*
X37768751Y-7804473D01*
X38773223Y-6800000D01*
X39126777Y-6800000D01*
X40131249Y-7804473D01*
X40360061Y-7669961D01*
X40585646Y-7064132D01*
X40566490Y-6535868D01*
X42414354Y-6535868D01*
X42437781Y-7181908D01*
X42639939Y-7669961D01*
X42868751Y-7804473D01*
X43873223Y-6800000D01*
X44226777Y-6800000D01*
X45231249Y-7804473D01*
X45460061Y-7669961D01*
X45685646Y-7064132D01*
X45671862Y-6684002D01*
X48004870Y-6684002D01*
X48010079Y-7347297D01*
X48229861Y-7973142D01*
X48640515Y-8494055D01*
X49197761Y-8853864D01*
X49841513Y-9013773D01*
X50502354Y-8956538D01*
X51109026Y-8688331D01*
X51596113Y-8238072D01*
X51911092Y-7654313D01*
X52020000Y-7000000D01*
X52019751Y-6968271D01*
X51900579Y-6315749D01*
X51576469Y-5737010D01*
X51082370Y-5294458D01*
X50471560Y-5035813D01*
X49809901Y-4988965D01*
X49168741Y-5158965D01*
X48617215Y-5527483D01*
X48214793Y-6054782D01*
X48004870Y-6684002D01*
X45671862Y-6684002D01*
X45662219Y-6418092D01*
X45460061Y-5930039D01*
X45231249Y-5795527D01*
X44226777Y-6800000D01*
X43873223Y-6800000D01*
X42868751Y-5795527D01*
X42639939Y-5930039D01*
X42414354Y-6535868D01*
X40566490Y-6535868D01*
X40562219Y-6418092D01*
X40360061Y-5930039D01*
X40131249Y-5795527D01*
X39126777Y-6800000D01*
X38773223Y-6800000D01*
X37768751Y-5795527D01*
X37539939Y-5930039D01*
X37314354Y-6535868D01*
X26666490Y-6535868D01*
X26662219Y-6418092D01*
X26460061Y-5930039D01*
X26231249Y-5795527D01*
X25226777Y-6800000D01*
X24873223Y-6800000D01*
X23868751Y-5795527D01*
X23639939Y-5930039D01*
X23414354Y-6535868D01*
X21566490Y-6535868D01*
X21562219Y-6418092D01*
X21360061Y-5930039D01*
X21131249Y-5795527D01*
X20126777Y-6800000D01*
X19773223Y-6800000D01*
X18768751Y-5795527D01*
X18539939Y-5930039D01*
X18314354Y-6535868D01*
X15940780Y-6535868D01*
X15900579Y-6315749D01*
X15576469Y-5737010D01*
X15444436Y-5618751D01*
X18945527Y-5618751D01*
X19950000Y-6623223D01*
X20954473Y-5618751D01*
X20819961Y-5389939D01*
X20214132Y-5164354D01*
X19568092Y-5187781D01*
X19080039Y-5389939D01*
X18945527Y-5618751D01*
X15444436Y-5618751D01*
X15082370Y-5294458D01*
X14471560Y-5035813D01*
X13809901Y-4988965D01*
X13168741Y-5158965D01*
X12617215Y-5527483D01*
X12214793Y-6054782D01*
X12004870Y-6684002D01*
X500000Y-6684002D01*
X500000Y-3966550D01*
X21075000Y-3966550D01*
X21075000Y-4533450D01*
X21291944Y-5057197D01*
X21692803Y-5458056D01*
X22216550Y-5675000D01*
X22783450Y-5675000D01*
X22919246Y-5618751D01*
X24045527Y-5618751D01*
X25050000Y-6623223D01*
X26054473Y-5618751D01*
X37945527Y-5618751D01*
X38950000Y-6623223D01*
X39954473Y-5618751D01*
X39819961Y-5389939D01*
X39214132Y-5164354D01*
X38568092Y-5187781D01*
X38080039Y-5389939D01*
X37945527Y-5618751D01*
X26054473Y-5618751D01*
X25919961Y-5389939D01*
X25314132Y-5164354D01*
X24668092Y-5187781D01*
X24180039Y-5389939D01*
X24045527Y-5618751D01*
X22919246Y-5618751D01*
X23307197Y-5458056D01*
X23708056Y-5057197D01*
X23925000Y-4533450D01*
X23925000Y-3966550D01*
X40075000Y-3966550D01*
X40075000Y-4533450D01*
X40291944Y-5057197D01*
X40692803Y-5458056D01*
X41216550Y-5675000D01*
X41783450Y-5675000D01*
X41919246Y-5618751D01*
X43045527Y-5618751D01*
X44050000Y-6623223D01*
X45054473Y-5618751D01*
X44919961Y-5389939D01*
X44314132Y-5164354D01*
X43668092Y-5187781D01*
X43180039Y-5389939D01*
X43045527Y-5618751D01*
X41919246Y-5618751D01*
X42307197Y-5458056D01*
X42708056Y-5057197D01*
X42925000Y-4533450D01*
X42925000Y-3966550D01*
X42708056Y-3442803D01*
X42307197Y-3041944D01*
X41919247Y-2881249D01*
X43045527Y-2881249D01*
X43180039Y-3110061D01*
X43785868Y-3335646D01*
X44431908Y-3312219D01*
X44919961Y-3110061D01*
X45054473Y-2881249D01*
X44050000Y-1876777D01*
X43045527Y-2881249D01*
X41919247Y-2881249D01*
X41783450Y-2825000D01*
X41216550Y-2825000D01*
X40692803Y-3041944D01*
X40291944Y-3442803D01*
X40075000Y-3966550D01*
X23925000Y-3966550D01*
X23708056Y-3442803D01*
X23307197Y-3041944D01*
X22919247Y-2881249D01*
X24045527Y-2881249D01*
X24180039Y-3110061D01*
X24785868Y-3335646D01*
X25431908Y-3312219D01*
X25919961Y-3110061D01*
X26054473Y-2881249D01*
X37945527Y-2881249D01*
X38080039Y-3110061D01*
X38685868Y-3335646D01*
X39331908Y-3312219D01*
X39819961Y-3110061D01*
X39954473Y-2881249D01*
X38950000Y-1876777D01*
X37945527Y-2881249D01*
X26054473Y-2881249D01*
X25050000Y-1876777D01*
X24045527Y-2881249D01*
X22919247Y-2881249D01*
X22783450Y-2825000D01*
X22216550Y-2825000D01*
X21692803Y-3041944D01*
X21291944Y-3442803D01*
X21075000Y-3966550D01*
X500000Y-3966550D01*
X500000Y-3029048D01*
X517231Y-2881249D01*
X18945527Y-2881249D01*
X19080039Y-3110061D01*
X19685868Y-3335646D01*
X20331908Y-3312219D01*
X20819961Y-3110061D01*
X20954473Y-2881249D01*
X19950000Y-1876777D01*
X18945527Y-2881249D01*
X517231Y-2881249D01*
X570348Y-2425654D01*
X767641Y-1882121D01*
X936217Y-1625000D01*
X2825000Y-1625000D01*
X2825000Y-1975000D01*
X2939441Y-2300333D01*
X3169670Y-2557107D01*
X3441063Y-2685808D01*
X3575000Y-2608519D01*
X3575000Y-1625000D01*
X3825000Y-1625000D01*
X3825000Y-2608519D01*
X3958937Y-2685808D01*
X4230330Y-2557107D01*
X4460559Y-2300333D01*
X4575000Y-1975000D01*
X4575000Y-1625000D01*
X9425000Y-1625000D01*
X9425000Y-1975000D01*
X9539441Y-2300333D01*
X9769670Y-2557107D01*
X10041063Y-2685808D01*
X10175000Y-2608519D01*
X10175000Y-1625000D01*
X10425000Y-1625000D01*
X10425000Y-2608519D01*
X10558937Y-2685808D01*
X10830330Y-2557107D01*
X11060559Y-2300333D01*
X11175000Y-1975000D01*
X11175000Y-1625000D01*
X10425000Y-1625000D01*
X10175000Y-1625000D01*
X9425000Y-1625000D01*
X4575000Y-1625000D01*
X3825000Y-1625000D01*
X3575000Y-1625000D01*
X2825000Y-1625000D01*
X936217Y-1625000D01*
X1060217Y-1435868D01*
X18314354Y-1435868D01*
X18337781Y-2081908D01*
X18539939Y-2569961D01*
X18768751Y-2704473D01*
X19773223Y-1700000D01*
X20126777Y-1700000D01*
X21131249Y-2704473D01*
X21360061Y-2569961D01*
X21585646Y-1964132D01*
X21566490Y-1435868D01*
X23414354Y-1435868D01*
X23437781Y-2081908D01*
X23639939Y-2569961D01*
X23868751Y-2704473D01*
X24873223Y-1700000D01*
X25226777Y-1700000D01*
X26231249Y-2704473D01*
X26460061Y-2569961D01*
X26685646Y-1964132D01*
X26666490Y-1435868D01*
X37314354Y-1435868D01*
X37337781Y-2081908D01*
X37539939Y-2569961D01*
X37768751Y-2704473D01*
X38773223Y-1700000D01*
X39126777Y-1700000D01*
X40131249Y-2704473D01*
X40360061Y-2569961D01*
X40585646Y-1964132D01*
X40566490Y-1435868D01*
X42414354Y-1435868D01*
X42437781Y-2081908D01*
X42639939Y-2569961D01*
X42868751Y-2704473D01*
X43873223Y-1700000D01*
X44226777Y-1700000D01*
X45231249Y-2704473D01*
X45460061Y-2569961D01*
X45685646Y-1964132D01*
X45662219Y-1318092D01*
X45460061Y-830039D01*
X45231249Y-695527D01*
X44226777Y-1700000D01*
X43873223Y-1700000D01*
X42868751Y-695527D01*
X42639939Y-830039D01*
X42414354Y-1435868D01*
X40566490Y-1435868D01*
X40562219Y-1318092D01*
X40360061Y-830039D01*
X40131249Y-695527D01*
X39126777Y-1700000D01*
X38773223Y-1700000D01*
X37768751Y-695527D01*
X37539939Y-830039D01*
X37314354Y-1435868D01*
X26666490Y-1435868D01*
X26662219Y-1318092D01*
X26460061Y-830039D01*
X26231249Y-695527D01*
X25226777Y-1700000D01*
X24873223Y-1700000D01*
X23868751Y-695527D01*
X23639939Y-830039D01*
X23414354Y-1435868D01*
X21566490Y-1435868D01*
X21562219Y-1318092D01*
X21360061Y-830039D01*
X21131249Y-695527D01*
X20126777Y-1700000D01*
X19773223Y-1700000D01*
X18768751Y-695527D01*
X18539939Y-830039D01*
X18314354Y-1435868D01*
X1060217Y-1435868D01*
X1084686Y-1398548D01*
X1504468Y-1000885D01*
X2004479Y-710455D01*
X2564435Y-540861D01*
X3022273Y-500000D01*
X3118467Y-500000D01*
X2939441Y-699667D01*
X2939441Y-699667D01*
G37*
X2939441Y-699667D02*
X2825000Y-1025000D01*
X2825000Y-1375000D01*
X3575000Y-1375000D01*
X3575000Y-1355000D01*
X3825000Y-1355000D01*
X3825000Y-1375000D01*
X4575000Y-1375000D01*
X4575000Y-1025000D01*
X4460559Y-699667D01*
X4281533Y-500000D01*
X9718467Y-500000D01*
X9539441Y-699667D01*
X9425000Y-1025000D01*
X9425000Y-1375000D01*
X10175000Y-1375000D01*
X10175000Y-1355000D01*
X10425000Y-1355000D01*
X10425000Y-1375000D01*
X11175000Y-1375000D01*
X11175000Y-1025000D01*
X11060559Y-699667D01*
X10881533Y-500000D01*
X18956550Y-500000D01*
X18945527Y-518751D01*
X19950000Y-1523223D01*
X20954473Y-518751D01*
X20943450Y-500000D01*
X24056550Y-500000D01*
X24045527Y-518751D01*
X25050000Y-1523223D01*
X26054473Y-518751D01*
X26043450Y-500000D01*
X37956550Y-500000D01*
X37945527Y-518751D01*
X38950000Y-1523223D01*
X39954473Y-518751D01*
X39943450Y-500000D01*
X43056550Y-500000D01*
X43045527Y-518751D01*
X44050000Y-1523223D01*
X45054473Y-518751D01*
X45043450Y-500000D01*
X60970952Y-500000D01*
X61574346Y-570348D01*
X62117879Y-767641D01*
X62601452Y-1084686D01*
X62999115Y-1504468D01*
X63289545Y-2004479D01*
X63459139Y-2564435D01*
X63500001Y-3022284D01*
X63500000Y-17625000D01*
X500000Y-17625000D01*
X500000Y-16561420D01*
X29674092Y-16561420D01*
X29674092Y-16889626D01*
X29799691Y-17192848D01*
X30031767Y-17424924D01*
X30334989Y-17550523D01*
X30663195Y-17550523D01*
X30966417Y-17424924D01*
X31041341Y-17350000D01*
X32433274Y-17350000D01*
X32532675Y-17449401D01*
X32835897Y-17575000D01*
X33164103Y-17575000D01*
X33467325Y-17449401D01*
X33699401Y-17217325D01*
X33825000Y-16914103D01*
X33825000Y-16585897D01*
X33699401Y-16282675D01*
X33467325Y-16050599D01*
X33164103Y-15925000D01*
X32835897Y-15925000D01*
X32532675Y-16050599D01*
X32433274Y-16150000D01*
X31090295Y-16150000D01*
X30966417Y-16026122D01*
X30663195Y-15900523D01*
X30334989Y-15900523D01*
X30031767Y-16026122D01*
X29799691Y-16258198D01*
X29674092Y-16561420D01*
X500000Y-16561420D01*
X500000Y-6684002D01*
X12004870Y-6684002D01*
X12010079Y-7347297D01*
X12229861Y-7973142D01*
X12640515Y-8494055D01*
X13197761Y-8853864D01*
X13841513Y-9013773D01*
X14502354Y-8956538D01*
X15109026Y-8688331D01*
X15596113Y-8238072D01*
X15734687Y-7981249D01*
X18945527Y-7981249D01*
X19080039Y-8210061D01*
X19685868Y-8435646D01*
X20331908Y-8412219D01*
X20819961Y-8210061D01*
X20954473Y-7981249D01*
X24045527Y-7981249D01*
X24180039Y-8210061D01*
X24785868Y-8435646D01*
X25431908Y-8412219D01*
X25919961Y-8210061D01*
X26054473Y-7981249D01*
X37945527Y-7981249D01*
X38080039Y-8210061D01*
X38685868Y-8435646D01*
X39331908Y-8412219D01*
X39819961Y-8210061D01*
X39954473Y-7981249D01*
X43045527Y-7981249D01*
X43180039Y-8210061D01*
X43785868Y-8435646D01*
X44431908Y-8412219D01*
X44919961Y-8210061D01*
X45054473Y-7981249D01*
X44050000Y-6976777D01*
X43045527Y-7981249D01*
X39954473Y-7981249D01*
X38950000Y-6976777D01*
X37945527Y-7981249D01*
X26054473Y-7981249D01*
X25050000Y-6976777D01*
X24045527Y-7981249D01*
X20954473Y-7981249D01*
X19950000Y-6976777D01*
X18945527Y-7981249D01*
X15734687Y-7981249D01*
X15911092Y-7654313D01*
X16020000Y-7000000D01*
X16019751Y-6968271D01*
X15940780Y-6535868D01*
X18314354Y-6535868D01*
X18337781Y-7181908D01*
X18539939Y-7669961D01*
X18768751Y-7804473D01*
X19773223Y-6800000D01*
X20126777Y-6800000D01*
X21131249Y-7804473D01*
X21360061Y-7669961D01*
X21585646Y-7064132D01*
X21566490Y-6535868D01*
X23414354Y-6535868D01*
X23437781Y-7181908D01*
X23639939Y-7669961D01*
X23868751Y-7804473D01*
X24873223Y-6800000D01*
X25226777Y-6800000D01*
X26231249Y-7804473D01*
X26460061Y-7669961D01*
X26685646Y-7064132D01*
X26666490Y-6535868D01*
X37314354Y-6535868D01*
X37337781Y-7181908D01*
X37539939Y-7669961D01*
X37768751Y-7804473D01*
X38773223Y-6800000D01*
X39126777Y-6800000D01*
X40131249Y-7804473D01*
X40360061Y-7669961D01*
X40585646Y-7064132D01*
X40566490Y-6535868D01*
X42414354Y-6535868D01*
X42437781Y-7181908D01*
X42639939Y-7669961D01*
X42868751Y-7804473D01*
X43873223Y-6800000D01*
X44226777Y-6800000D01*
X45231249Y-7804473D01*
X45460061Y-7669961D01*
X45685646Y-7064132D01*
X45671862Y-6684002D01*
X48004870Y-6684002D01*
X48010079Y-7347297D01*
X48229861Y-7973142D01*
X48640515Y-8494055D01*
X49197761Y-8853864D01*
X49841513Y-9013773D01*
X50502354Y-8956538D01*
X51109026Y-8688331D01*
X51596113Y-8238072D01*
X51911092Y-7654313D01*
X52020000Y-7000000D01*
X52019751Y-6968271D01*
X51900579Y-6315749D01*
X51576469Y-5737010D01*
X51082370Y-5294458D01*
X50471560Y-5035813D01*
X49809901Y-4988965D01*
X49168741Y-5158965D01*
X48617215Y-5527483D01*
X48214793Y-6054782D01*
X48004870Y-6684002D01*
X45671862Y-6684002D01*
X45662219Y-6418092D01*
X45460061Y-5930039D01*
X45231249Y-5795527D01*
X44226777Y-6800000D01*
X43873223Y-6800000D01*
X42868751Y-5795527D01*
X42639939Y-5930039D01*
X42414354Y-6535868D01*
X40566490Y-6535868D01*
X40562219Y-6418092D01*
X40360061Y-5930039D01*
X40131249Y-5795527D01*
X39126777Y-6800000D01*
X38773223Y-6800000D01*
X37768751Y-5795527D01*
X37539939Y-5930039D01*
X37314354Y-6535868D01*
X26666490Y-6535868D01*
X26662219Y-6418092D01*
X26460061Y-5930039D01*
X26231249Y-5795527D01*
X25226777Y-6800000D01*
X24873223Y-6800000D01*
X23868751Y-5795527D01*
X23639939Y-5930039D01*
X23414354Y-6535868D01*
X21566490Y-6535868D01*
X21562219Y-6418092D01*
X21360061Y-5930039D01*
X21131249Y-5795527D01*
X20126777Y-6800000D01*
X19773223Y-6800000D01*
X18768751Y-5795527D01*
X18539939Y-5930039D01*
X18314354Y-6535868D01*
X15940780Y-6535868D01*
X15900579Y-6315749D01*
X15576469Y-5737010D01*
X15444436Y-5618751D01*
X18945527Y-5618751D01*
X19950000Y-6623223D01*
X20954473Y-5618751D01*
X20819961Y-5389939D01*
X20214132Y-5164354D01*
X19568092Y-5187781D01*
X19080039Y-5389939D01*
X18945527Y-5618751D01*
X15444436Y-5618751D01*
X15082370Y-5294458D01*
X14471560Y-5035813D01*
X13809901Y-4988965D01*
X13168741Y-5158965D01*
X12617215Y-5527483D01*
X12214793Y-6054782D01*
X12004870Y-6684002D01*
X500000Y-6684002D01*
X500000Y-3966550D01*
X21075000Y-3966550D01*
X21075000Y-4533450D01*
X21291944Y-5057197D01*
X21692803Y-5458056D01*
X22216550Y-5675000D01*
X22783450Y-5675000D01*
X22919246Y-5618751D01*
X24045527Y-5618751D01*
X25050000Y-6623223D01*
X26054473Y-5618751D01*
X37945527Y-5618751D01*
X38950000Y-6623223D01*
X39954473Y-5618751D01*
X39819961Y-5389939D01*
X39214132Y-5164354D01*
X38568092Y-5187781D01*
X38080039Y-5389939D01*
X37945527Y-5618751D01*
X26054473Y-5618751D01*
X25919961Y-5389939D01*
X25314132Y-5164354D01*
X24668092Y-5187781D01*
X24180039Y-5389939D01*
X24045527Y-5618751D01*
X22919246Y-5618751D01*
X23307197Y-5458056D01*
X23708056Y-5057197D01*
X23925000Y-4533450D01*
X23925000Y-3966550D01*
X40075000Y-3966550D01*
X40075000Y-4533450D01*
X40291944Y-5057197D01*
X40692803Y-5458056D01*
X41216550Y-5675000D01*
X41783450Y-5675000D01*
X41919246Y-5618751D01*
X43045527Y-5618751D01*
X44050000Y-6623223D01*
X45054473Y-5618751D01*
X44919961Y-5389939D01*
X44314132Y-5164354D01*
X43668092Y-5187781D01*
X43180039Y-5389939D01*
X43045527Y-5618751D01*
X41919246Y-5618751D01*
X42307197Y-5458056D01*
X42708056Y-5057197D01*
X42925000Y-4533450D01*
X42925000Y-3966550D01*
X42708056Y-3442803D01*
X42307197Y-3041944D01*
X41919247Y-2881249D01*
X43045527Y-2881249D01*
X43180039Y-3110061D01*
X43785868Y-3335646D01*
X44431908Y-3312219D01*
X44919961Y-3110061D01*
X45054473Y-2881249D01*
X44050000Y-1876777D01*
X43045527Y-2881249D01*
X41919247Y-2881249D01*
X41783450Y-2825000D01*
X41216550Y-2825000D01*
X40692803Y-3041944D01*
X40291944Y-3442803D01*
X40075000Y-3966550D01*
X23925000Y-3966550D01*
X23708056Y-3442803D01*
X23307197Y-3041944D01*
X22919247Y-2881249D01*
X24045527Y-2881249D01*
X24180039Y-3110061D01*
X24785868Y-3335646D01*
X25431908Y-3312219D01*
X25919961Y-3110061D01*
X26054473Y-2881249D01*
X37945527Y-2881249D01*
X38080039Y-3110061D01*
X38685868Y-3335646D01*
X39331908Y-3312219D01*
X39819961Y-3110061D01*
X39954473Y-2881249D01*
X38950000Y-1876777D01*
X37945527Y-2881249D01*
X26054473Y-2881249D01*
X25050000Y-1876777D01*
X24045527Y-2881249D01*
X22919247Y-2881249D01*
X22783450Y-2825000D01*
X22216550Y-2825000D01*
X21692803Y-3041944D01*
X21291944Y-3442803D01*
X21075000Y-3966550D01*
X500000Y-3966550D01*
X500000Y-3029048D01*
X517231Y-2881249D01*
X18945527Y-2881249D01*
X19080039Y-3110061D01*
X19685868Y-3335646D01*
X20331908Y-3312219D01*
X20819961Y-3110061D01*
X20954473Y-2881249D01*
X19950000Y-1876777D01*
X18945527Y-2881249D01*
X517231Y-2881249D01*
X570348Y-2425654D01*
X767641Y-1882121D01*
X936217Y-1625000D01*
X2825000Y-1625000D01*
X2825000Y-1975000D01*
X2939441Y-2300333D01*
X3169670Y-2557107D01*
X3441063Y-2685808D01*
X3575000Y-2608519D01*
X3575000Y-1625000D01*
X3825000Y-1625000D01*
X3825000Y-2608519D01*
X3958937Y-2685808D01*
X4230330Y-2557107D01*
X4460559Y-2300333D01*
X4575000Y-1975000D01*
X4575000Y-1625000D01*
X9425000Y-1625000D01*
X9425000Y-1975000D01*
X9539441Y-2300333D01*
X9769670Y-2557107D01*
X10041063Y-2685808D01*
X10175000Y-2608519D01*
X10175000Y-1625000D01*
X10425000Y-1625000D01*
X10425000Y-2608519D01*
X10558937Y-2685808D01*
X10830330Y-2557107D01*
X11060559Y-2300333D01*
X11175000Y-1975000D01*
X11175000Y-1625000D01*
X10425000Y-1625000D01*
X10175000Y-1625000D01*
X9425000Y-1625000D01*
X4575000Y-1625000D01*
X3825000Y-1625000D01*
X3575000Y-1625000D01*
X2825000Y-1625000D01*
X936217Y-1625000D01*
X1060217Y-1435868D01*
X18314354Y-1435868D01*
X18337781Y-2081908D01*
X18539939Y-2569961D01*
X18768751Y-2704473D01*
X19773223Y-1700000D01*
X20126777Y-1700000D01*
X21131249Y-2704473D01*
X21360061Y-2569961D01*
X21585646Y-1964132D01*
X21566490Y-1435868D01*
X23414354Y-1435868D01*
X23437781Y-2081908D01*
X23639939Y-2569961D01*
X23868751Y-2704473D01*
X24873223Y-1700000D01*
X25226777Y-1700000D01*
X26231249Y-2704473D01*
X26460061Y-2569961D01*
X26685646Y-1964132D01*
X26666490Y-1435868D01*
X37314354Y-1435868D01*
X37337781Y-2081908D01*
X37539939Y-2569961D01*
X37768751Y-2704473D01*
X38773223Y-1700000D01*
X39126777Y-1700000D01*
X40131249Y-2704473D01*
X40360061Y-2569961D01*
X40585646Y-1964132D01*
X40566490Y-1435868D01*
X42414354Y-1435868D01*
X42437781Y-2081908D01*
X42639939Y-2569961D01*
X42868751Y-2704473D01*
X43873223Y-1700000D01*
X44226777Y-1700000D01*
X45231249Y-2704473D01*
X45460061Y-2569961D01*
X45685646Y-1964132D01*
X45662219Y-1318092D01*
X45460061Y-830039D01*
X45231249Y-695527D01*
X44226777Y-1700000D01*
X43873223Y-1700000D01*
X42868751Y-695527D01*
X42639939Y-830039D01*
X42414354Y-1435868D01*
X40566490Y-1435868D01*
X40562219Y-1318092D01*
X40360061Y-830039D01*
X40131249Y-695527D01*
X39126777Y-1700000D01*
X38773223Y-1700000D01*
X37768751Y-695527D01*
X37539939Y-830039D01*
X37314354Y-1435868D01*
X26666490Y-1435868D01*
X26662219Y-1318092D01*
X26460061Y-830039D01*
X26231249Y-695527D01*
X25226777Y-1700000D01*
X24873223Y-1700000D01*
X23868751Y-695527D01*
X23639939Y-830039D01*
X23414354Y-1435868D01*
X21566490Y-1435868D01*
X21562219Y-1318092D01*
X21360061Y-830039D01*
X21131249Y-695527D01*
X20126777Y-1700000D01*
X19773223Y-1700000D01*
X18768751Y-695527D01*
X18539939Y-830039D01*
X18314354Y-1435868D01*
X1060217Y-1435868D01*
X1084686Y-1398548D01*
X1504468Y-1000885D01*
X2004479Y-710455D01*
X2564435Y-540861D01*
X3022273Y-500000D01*
X3118467Y-500000D01*
X2939441Y-699667D01*
D19*
G04 #@! TO.N,/IB+*
G36*
X47942000Y-27700000D02*
X39115823Y-27700000D01*
X36705299Y-25512673D01*
X39148741Y-22300000D01*
X47942000Y-22300000D01*
X47942000Y-27700000D01*
X47942000Y-27700000D01*
G37*
X47942000Y-27700000D02*
X39115823Y-27700000D01*
X36705299Y-25512673D01*
X39148741Y-22300000D01*
X47942000Y-22300000D01*
X47942000Y-27700000D01*
G04 #@! TO.N,/IB-*
G36*
X60274070Y-24487327D02*
X57830628Y-27700000D01*
X49050000Y-27700000D01*
X49050000Y-22300000D01*
X57863546Y-22300000D01*
X60274070Y-24487327D01*
X60274070Y-24487327D01*
G37*
X60274070Y-24487327D02*
X57830628Y-27700000D01*
X49050000Y-27700000D01*
X49050000Y-22300000D01*
X57863546Y-22300000D01*
X60274070Y-24487327D01*
G04 #@! TO.N,/IA-*
G36*
X27575736Y-25000000D02*
X24875736Y-27700000D01*
X16050000Y-27700000D01*
X16050000Y-22300000D01*
X24875736Y-22300000D01*
X27575736Y-25000000D01*
X27575736Y-25000000D01*
G37*
X27575736Y-25000000D02*
X24875736Y-27700000D01*
X16050000Y-27700000D01*
X16050000Y-22300000D01*
X24875736Y-22300000D01*
X27575736Y-25000000D01*
G04 #@! TO.N,/IA+*
G36*
X14942000Y-27700000D02*
X6124264Y-27700000D01*
X3424264Y-25000000D01*
X6124264Y-22300000D01*
X14942000Y-22300000D01*
X14942000Y-27700000D01*
X14942000Y-27700000D01*
G37*
X14942000Y-27700000D02*
X6124264Y-27700000D01*
X3424264Y-25000000D01*
X6124264Y-22300000D01*
X14942000Y-22300000D01*
X14942000Y-27700000D01*
G04 #@! TD*
M02*
