G04 #@! TF.GenerationSoftware,KiCad,Pcbnew,(5.0.0-rc2-204-g01c2d93a8)*
G04 #@! TF.CreationDate,2018-06-27T22:36:21-05:00*
G04 #@! TF.ProjectId,hall-current-probe,68616C6C2D63757272656E742D70726F,rev?*
G04 #@! TF.SameCoordinates,Original*
G04 #@! TF.FileFunction,Soldermask,Bot*
G04 #@! TF.FilePolarity,Negative*
%FSLAX46Y46*%
G04 Gerber Fmt 4.6, Leading zero omitted, Abs format (unit mm)*
G04 Created by KiCad (PCBNEW (5.0.0-rc2-204-g01c2d93a8)) date Wed Jun 27 22:36:21 2018*
%MOMM*%
%LPD*%
G01*
G04 APERTURE LIST*
%ADD10C,2.600000*%
%ADD11C,1.400000*%
%ADD12C,9.400000*%
%ADD13C,2.800000*%
%ADD14C,2.400000*%
%ADD15O,1.100000X1.800000*%
G04 APERTURE END LIST*
D10*
G04 #@! TO.C,J4*
X13000000Y-23500000D03*
X13000000Y-28500000D03*
X18000000Y-28500000D03*
X18000000Y-23500000D03*
G04 #@! TD*
G04 #@! TO.C,J5*
X51000000Y-23500000D03*
X51000000Y-28500000D03*
X46000000Y-28500000D03*
X46000000Y-23500000D03*
G04 #@! TD*
D11*
G04 #@! TO.C,MP4*
X59750000Y-21968911D03*
X56250000Y-21968911D03*
X54500000Y-25000000D03*
X56250000Y-28031089D03*
X59750000Y-28031089D03*
X61500000Y-25000000D03*
D12*
X58000000Y-25000000D03*
G04 #@! TD*
G04 #@! TO.C,MP1*
X6000000Y-25000000D03*
D11*
X9500000Y-25000000D03*
X7750000Y-28031089D03*
X4250000Y-28031089D03*
X2500000Y-25000000D03*
X4250000Y-21968911D03*
X7750000Y-21968911D03*
G04 #@! TD*
G04 #@! TO.C,MP2*
X26750000Y-21968911D03*
X23250000Y-21968911D03*
X21500000Y-25000000D03*
X23250000Y-28031089D03*
X26750000Y-28031089D03*
X28500000Y-25000000D03*
D12*
X25000000Y-25000000D03*
G04 #@! TD*
G04 #@! TO.C,MP3*
X39000000Y-25000000D03*
D11*
X42500000Y-25000000D03*
X40750000Y-28031089D03*
X37250000Y-28031089D03*
X35500000Y-25000000D03*
X37250000Y-21968911D03*
X40750000Y-21968911D03*
G04 #@! TD*
D13*
G04 #@! TO.C,J2*
X19950000Y-1700000D03*
X25050000Y-1700000D03*
X19950000Y-6800000D03*
X25050000Y-6800000D03*
D14*
X22500000Y-4250000D03*
G04 #@! TD*
G04 #@! TO.C,J3*
X41500000Y-4250000D03*
D13*
X44050000Y-6800000D03*
X38950000Y-6800000D03*
X44050000Y-1700000D03*
X38950000Y-1700000D03*
G04 #@! TD*
D15*
G04 #@! TO.C,J1*
X3700000Y-1500000D03*
X10300000Y-1500000D03*
G04 #@! TD*
M02*
